<svg id="Сгруппировать_13" data-name="Сгруппировать 13" xmlns="http://www.w3.org/2000/svg" width="242.514" height="242.501" viewBox="0 0 242.514 242.501">
  <path id="Контур_18" data-name="Контур 18" d="M-3721.427,985.2l2.347,1.319-1.964,7.145.028.015,5.567-5.118,2,1.125-1.588,7.574.028.015,5.26-5.509,2.181,1.226-8.354,8.167-1.919-1.079,1.65-7.975-.028-.016-5.957,5.554-1.85-1.04Z" transform="translate(3895.119 -973.509)" fill="#fff"/>
  <path id="Контур_19" data-name="Контур 19" d="M-3690.345,1006.592l6.154,4.489-1.343,1.842-4.158-3.033-1.232,1.689,3.928,2.865-1.344,1.843-3.928-2.865-1.344,1.843,4.389,3.2-1.344,1.843-6.385-4.657Z" transform="translate(3879.956 -985.491)" fill="#fff"/>
  <path id="Контур_20" data-name="Контур 20" d="M-3671.24,1021.718l3.134,2.766a10.6,10.6,0,0,1,1.03,1.047,4,4,0,0,1,.719,1.183,2.537,2.537,0,0,1,.141,1.276,2.648,2.648,0,0,1-.7,1.345,2.353,2.353,0,0,1-1.44.83,2.916,2.916,0,0,1-1.643-.256l-.021.024a3.207,3.207,0,0,1,.55.9,2.7,2.7,0,0,1,.194.953,2.5,2.5,0,0,1-.176.953,2.919,2.919,0,0,1-.541.875,2.687,2.687,0,0,1-1.265.858,2.983,2.983,0,0,1-1.37.069,4.3,4.3,0,0,1-1.361-.5,7.237,7.237,0,0,1-1.227-.872l-3.443-3.039Zm-4.185,8.474,1.663,1.467a2.7,2.7,0,0,0,.475.335,1.527,1.527,0,0,0,.545.185,1.255,1.255,0,0,0,.563-.052,1.193,1.193,0,0,0,.521-.364.987.987,0,0,0,.276-.612,1.261,1.261,0,0,0-.127-.609,2.582,2.582,0,0,0-.372-.56,4.933,4.933,0,0,0-.455-.465l-1.4-1.237Zm3.071-3.479,1.341,1.185a2.5,2.5,0,0,0,.464.324,1.538,1.538,0,0,0,.51.176,1.068,1.068,0,0,0,.519-.049,1.139,1.139,0,0,0,.478-.338,1.036,1.036,0,0,0,.27-.533,1.054,1.054,0,0,0-.055-.524,1.857,1.857,0,0,0-.284-.493,3.283,3.283,0,0,0-.4-.429l-1.259-1.111Z" transform="translate(3869.711 -993.963)" fill="#fff"/>
  <path id="Контур_21" data-name="Контур 21" d="M-3644.673,1048.266l2.39,2.832a10.574,10.574,0,0,1,1.419,2.149,5.85,5.85,0,0,1,.62,2.244,4.775,4.775,0,0,1-.413,2.224,5.874,5.874,0,0,1-1.654,2.091,5.337,5.337,0,0,1-2.166,1.154,5.156,5.156,0,0,1-2.225.065,6.119,6.119,0,0,1-2.114-.848,7.8,7.8,0,0,1-1.822-1.593l-2.6-3.086Zm-5.232,7.648.827.981a6.9,6.9,0,0,0,1.16,1.1,3.406,3.406,0,0,0,1.264.6,2.776,2.776,0,0,0,1.357-.037,3.753,3.753,0,0,0,1.427-.8,3.127,3.127,0,0,0,.9-1.161,2.859,2.859,0,0,0,.233-1.284,3.649,3.649,0,0,0-.338-1.321,5.447,5.447,0,0,0-.8-1.26l-.939-1.113Z" transform="translate(3855.474 -1008.832)" fill="#fff"/>
  <path id="Контур_22" data-name="Контур 22" d="M-3626.372,1071.822l4.3,6.286-1.882,1.289-2.907-4.247-1.725,1.181,2.747,4.012-1.882,1.288-2.746-4.012-1.882,1.289,3.069,4.482-1.882,1.288-4.464-6.521Z" transform="translate(3845.608 -1022.026)" fill="#fff"/>
  <path id="Контур_23" data-name="Контур 23" d="M-3612.337,1099.878a1.76,1.76,0,0,0,.091-.987,2.94,2.94,0,0,0-.318-.938,2.562,2.562,0,0,0-.327-.452,2.117,2.117,0,0,0-.436-.372,1.171,1.171,0,0,0-.512-.184.9.9,0,0,0-.547.126.892.892,0,0,0-.49.711,3.593,3.593,0,0,0,.069,1.06q.118.6.278,1.27a5.147,5.147,0,0,1,.14,1.347,2.947,2.947,0,0,1-.345,1.293,2.85,2.85,0,0,1-1.18,1.1,3.612,3.612,0,0,1-1.593.5,3.313,3.313,0,0,1-1.469-.255,4.016,4.016,0,0,1-1.269-.867,6.05,6.05,0,0,1-1-1.334,5.992,5.992,0,0,1-.7-1.93,5.073,5.073,0,0,1,.085-2.046l2.546.585a2.559,2.559,0,0,0-.214,1.219,2.737,2.737,0,0,0,.344,1.179,2.756,2.756,0,0,0,.361.5,2,2,0,0,0,.458.378,1.2,1.2,0,0,0,.512.166.908.908,0,0,0,.529-.125.95.95,0,0,0,.507-.73,3.578,3.578,0,0,0-.042-1.094q-.107-.611-.261-1.306a5.7,5.7,0,0,1-.138-1.376,3.049,3.049,0,0,1,.323-1.3,2.633,2.633,0,0,1,1.121-1.076,3.363,3.363,0,0,1,1.555-.465,3.442,3.442,0,0,1,1.46.269,4.133,4.133,0,0,1,1.271.856,5.614,5.614,0,0,1,.984,1.282,6.288,6.288,0,0,1,.666,1.733,4.251,4.251,0,0,1,0,1.837Z" transform="translate(3837.989 -1034.709)" fill="#fff"/>
  <path id="Контур_24" data-name="Контур 24" d="M-3602.832,1112.727l1.069,2.227-10.11,4.85-1.069-2.227Z" transform="translate(3832.903 -1044.936)" fill="#fff"/>
  <path id="Контур_25" data-name="Контур 25" d="M-3602.082,1139.081a8.958,8.958,0,0,1-1.589-1.832,11.6,11.6,0,0,1-1.107-2.17,6.91,6.91,0,0,1-.487-2.409,5.545,5.545,0,0,1,.412-2.212,5.349,5.349,0,0,1,1.284-1.844,6.325,6.325,0,0,1,2.113-1.3,6.337,6.337,0,0,1,2.438-.456,5.351,5.351,0,0,1,2.189.506,5.551,5.551,0,0,1,1.79,1.364,6.914,6.914,0,0,1,1.256,2.113,8.992,8.992,0,0,1,.588,2.43,4.852,4.852,0,0,1-.327,2.256l-2.4-.942a3.473,3.473,0,0,0,.329-1.349,4.063,4.063,0,0,0-.318-1.574,3.668,3.668,0,0,0-.767-1.241,3.223,3.223,0,0,0-1.1-.757,3.31,3.31,0,0,0-1.325-.245,4.127,4.127,0,0,0-1.433.29,4.1,4.1,0,0,0-1.264.75,3.314,3.314,0,0,0-.81,1.068,3.212,3.212,0,0,0-.306,1.3,3.672,3.672,0,0,0,.264,1.434,4.716,4.716,0,0,0,.671,1.235,5.268,5.268,0,0,0,.683.738l1.7-.655-.723-1.877,2.128-.82,1.577,4.094Z" transform="translate(3828.604 -1052.851)" fill="#fff"/>
  <path id="Контур_26" data-name="Контур 26" d="M-3587.259,1153.836l.835,3.252-6.361,6.555.008.031,7.547-1.939.615,2.393-10.86,2.79-.8-3.129,6.513-6.725-.008-.031-7.731,1.986-.615-2.393Z" transform="translate(3824.601 -1067.96)" fill="#fff"/>
  <path id="Контур_27" data-name="Контур 27" d="M-3580,1198.766a2.687,2.687,0,0,1,1.11.1,2.851,2.851,0,0,1,.948.5,2.852,2.852,0,0,1,.7.816,2.7,2.7,0,0,1,.341,1.062,2.7,2.7,0,0,1-.1,1.11,2.877,2.877,0,0,1-.5.948,2.881,2.881,0,0,1-.815.7,2.71,2.71,0,0,1-1.062.34,2.7,2.7,0,0,1-1.11-.1,2.867,2.867,0,0,1-.948-.5,2.865,2.865,0,0,1-.7-.816,2.685,2.685,0,0,1-.34-1.062,2.693,2.693,0,0,1,.1-1.11,2.849,2.849,0,0,1,.5-.948,2.852,2.852,0,0,1,.815-.7A2.688,2.688,0,0,1-3580,1198.766Z" transform="translate(3815.852 -1093.115)" fill="#fff"/>
  <path id="Контур_28" data-name="Контур 28" d="M-3576,1229.907l-.069,4.164a8.193,8.193,0,0,1-.186,1.644,3.75,3.75,0,0,1-.569,1.344,2.762,2.762,0,0,1-1.06.9,3.576,3.576,0,0,1-1.66.313,3.821,3.821,0,0,1-1.642-.344,2.7,2.7,0,0,1-1.046-.889,3.527,3.527,0,0,1-.541-1.324,7.7,7.7,0,0,1-.139-1.65l.03-1.805-4.371-.073.042-2.47Zm-4.792,2.391-.027,1.647a3.167,3.167,0,0,0,.053.642,1.693,1.693,0,0,0,.2.558,1.138,1.138,0,0,0,.405.4,1.3,1.3,0,0,0,.655.161,1.114,1.114,0,0,0,.692-.187,1.323,1.323,0,0,0,.412-.5,2.167,2.167,0,0,0,.194-.686,6.925,6.925,0,0,0,.052-.728l.021-1.267Z" transform="translate(3818.516 -1110.462)" fill="#fff"/>
  <path id="Контур_29" data-name="Контур 29" d="M-3577.883,1253.948l-.472,4.314a7.655,7.655,0,0,1-.342,1.6,3.859,3.859,0,0,1-.7,1.277,2.768,2.768,0,0,1-1.139.8,3.542,3.542,0,0,1-1.667.16,3.294,3.294,0,0,1-1.939-.834,2.778,2.778,0,0,1-.85-1.909l-5.018,2.318.323-2.944,4.711-1.842.133-1.212-4.456-.488.269-2.456Zm-4.882,1.951-.159,1.448q-.035.33-.052.7a2.186,2.186,0,0,0,.069.684,1.164,1.164,0,0,0,.315.537,1.138,1.138,0,0,0,.687.275,1.184,1.184,0,0,0,.7-.1,1.164,1.164,0,0,0,.434-.4,1.982,1.982,0,0,0,.248-.594,5.085,5.085,0,0,0,.121-.671l.176-1.606Z" transform="translate(3820.058 -1123.348)" fill="#fff"/>
  <path id="Контур_30" data-name="Контур 30" d="M-3586.932,1277.346a6.33,6.33,0,0,1,2.285.966,5.348,5.348,0,0,1,1.546,1.63,5.558,5.558,0,0,1,.74,2.125,6.922,6.922,0,0,1-.119,2.455,6.912,6.912,0,0,1-.924,2.277,5.549,5.549,0,0,1-1.565,1.618,5.348,5.348,0,0,1-2.088.829,6.336,6.336,0,0,1-2.479-.084,6.339,6.339,0,0,1-2.285-.965,5.35,5.35,0,0,1-1.546-1.63,5.538,5.538,0,0,1-.74-2.125,6.916,6.916,0,0,1,.119-2.455,6.9,6.9,0,0,1,.924-2.277,5.531,5.531,0,0,1,1.564-1.618,5.351,5.351,0,0,1,2.088-.829A6.339,6.339,0,0,1-3586.932,1277.346Zm-.552,2.505a4.1,4.1,0,0,0-1.468-.072,3.306,3.306,0,0,0-1.265.443,3.209,3.209,0,0,0-.972.913,3.658,3.658,0,0,0-.571,1.342,3.666,3.666,0,0,0-.046,1.457,3.216,3.216,0,0,0,.5,1.237,3.319,3.319,0,0,0,.962.934,4.123,4.123,0,0,0,1.362.552,4.143,4.143,0,0,0,1.46.07,3.314,3.314,0,0,0,1.273-.441,3.226,3.226,0,0,0,.972-.913,3.668,3.668,0,0,0,.571-1.342,3.668,3.668,0,0,0,.046-1.458,3.227,3.227,0,0,0-.5-1.236,3.3,3.3,0,0,0-.97-.936A4.145,4.145,0,0,0-3587.484,1279.852Z" transform="translate(3822.387 -1137.042)" fill="#fff"/>
  <path id="Контур_31" data-name="Контур 31" d="M-3588.968,1309.163l-1.212,3.5a10.6,10.6,0,0,1-1.12,2.319,5.869,5.869,0,0,1-1.612,1.68,4.774,4.774,0,0,1-2.122.782,5.868,5.868,0,0,1-2.643-.353,5.326,5.326,0,0,1-2.1-1.27,5.163,5.163,0,0,1-1.194-1.879,6.124,6.124,0,0,1-.352-2.25,7.812,7.812,0,0,1,.438-2.379l1.32-3.817Zm-9.249-.585-.42,1.212a6.9,6.9,0,0,0-.355,1.561,3.405,3.405,0,0,0,.129,1.394,2.782,2.782,0,0,0,.726,1.147,3.757,3.757,0,0,0,1.419.817,3.131,3.131,0,0,0,1.455.177,2.872,2.872,0,0,0,1.222-.457,3.633,3.633,0,0,0,.963-.966,5.435,5.435,0,0,0,.671-1.334l.477-1.377Z" transform="translate(3826.397 -1152.903)" fill="#fff"/>
  <path id="Контур_32" data-name="Контур 32" d="M-3610.417,1343.512a5.424,5.424,0,0,1-1.531-1.059,4.038,4.038,0,0,1-.933-1.433,4.092,4.092,0,0,1-.239-1.752,5.562,5.562,0,0,1,.56-1.995,5.606,5.606,0,0,1,1.2-1.711,4.1,4.1,0,0,1,1.507-.924,4.044,4.044,0,0,1,1.7-.184,5.411,5.411,0,0,1,1.789.515l6.225,2.951-1.058,2.232-6.139-2.911a2.718,2.718,0,0,0-.944-.263,2.3,2.3,0,0,0-.894.093,2.115,2.115,0,0,0-.766.434,2.258,2.258,0,0,0-.555.745,2.209,2.209,0,0,0-.222.894,2.133,2.133,0,0,0,.153.861,2.3,2.3,0,0,0,.493.751,2.736,2.736,0,0,0,.8.564l6.139,2.911-1.059,2.233Z" transform="translate(3833.009 -1169.11)" fill="#fff"/>
  <path id="Контур_33" data-name="Контур 33" d="M-3620.145,1368.064a2.418,2.418,0,0,0,1.046-.41,2.973,2.973,0,0,0,.841-.925,3.088,3.088,0,0,0,.441-1.242,3.082,3.082,0,0,0-.107-1.27,3.5,3.5,0,0,0-.627-1.179,4.123,4.123,0,0,0-1.1-.959,4.117,4.117,0,0,0-1.365-.544,3.594,3.594,0,0,0-1.324-.017,3.039,3.039,0,0,0-1.166.468,2.9,2.9,0,0,0-.876.922,2.785,2.785,0,0,0-.429,1.314,2.682,2.682,0,0,0,.255,1.286l-2.383.96a4.29,4.29,0,0,1-.319-2.308,5.583,5.583,0,0,1,.763-2.168,6.9,6.9,0,0,1,1.611-1.856,5.549,5.549,0,0,1,2-1.023,5.341,5.341,0,0,1,2.244-.108,6.333,6.333,0,0,1,2.319.882,6.334,6.334,0,0,1,1.848,1.654,5.355,5.355,0,0,1,.935,2.043,5.544,5.544,0,0,1,.011,2.25,6.91,6.91,0,0,1-.907,2.284,6,6,0,0,1-.589.8,5.382,5.382,0,0,1-.764.722,4.5,4.5,0,0,1-.931.555,3.808,3.808,0,0,1-1.091.3Z" transform="translate(3840.946 -1182.833)" fill="#fff"/>
  <path id="Контур_34" data-name="Контур 34" d="M-3629.333,1386.146l1.907-2.569,1.755,1.3-5.286,7.121-1.755-1.3,1.907-2.569-7.248-5.381,1.472-1.984Z" transform="translate(3846.968 -1195.06)" fill="#fff"/>
  <path id="Контур_35" data-name="Контур 35" d="M-3650.073,1410.008l-2.606,2.634a10.593,10.593,0,0,1-2.013,1.606,5.858,5.858,0,0,1-2.179.818,4.772,4.772,0,0,1-2.252-.212,5.867,5.867,0,0,1-2.23-1.461,5.325,5.325,0,0,1-1.343-2.053,5.15,5.15,0,0,1-.264-2.21,6.111,6.111,0,0,1,.655-2.182,7.8,7.8,0,0,1,1.423-1.956l2.841-2.871Zm-8.086-4.527-.9.912a6.86,6.86,0,0,0-1,1.254,3.393,3.393,0,0,0-.486,1.313,2.776,2.776,0,0,0,.158,1.348,3.769,3.769,0,0,0,.926,1.351,3.139,3.139,0,0,0,1.236.789,2.869,2.869,0,0,0,1.3.116,3.642,3.642,0,0,0,1.285-.455,5.484,5.484,0,0,0,1.183-.913l1.024-1.036Z" transform="translate(3860.932 -1207.021)" fill="#fff"/>
  <path id="Контур_36" data-name="Контур 36" d="M-3672.228,1430.248l-5.875,4.849-1.452-1.759,3.969-3.276-1.331-1.612-3.749,3.095-1.452-1.759,3.749-3.095-1.451-1.759-4.189,3.458-1.452-1.759,6.095-5.03Z" transform="translate(3873.52 -1217.932)" fill="#fff"/>
  <path id="Контур_37" data-name="Контур 37" d="M-3695.168,1446.531a1.756,1.756,0,0,0,.99,0,2.936,2.936,0,0,0,.906-.4,2.635,2.635,0,0,0,.421-.366,2.153,2.153,0,0,0,.331-.469,1.171,1.171,0,0,0,.137-.527.9.9,0,0,0-.174-.534.894.894,0,0,0-.753-.425,3.63,3.63,0,0,0-1.05.165q-.584.171-1.24.391a5.13,5.13,0,0,1-1.329.26,2.952,2.952,0,0,1-1.319-.227,2.85,2.85,0,0,1-1.2-1.077,3.6,3.6,0,0,1-.637-1.541,3.306,3.306,0,0,1,.122-1.487,4,4,0,0,1,.75-1.342,6.053,6.053,0,0,1,1.238-1.12,6.006,6.006,0,0,1,1.858-.874,5.064,5.064,0,0,1,2.046-.1l-.354,2.588a2.571,2.571,0,0,0-1.234-.1,2.739,2.739,0,0,0-1.142.449,2.739,2.739,0,0,0-.462.4,1.987,1.987,0,0,0-.335.49,1.192,1.192,0,0,0-.12.524.912.912,0,0,0,.172.516.949.949,0,0,0,.773.439,3.584,3.584,0,0,0,1.085-.14q.6-.162,1.277-.379a5.67,5.67,0,0,1,1.358-.26,3.038,3.038,0,0,1,1.323.2,2.628,2.628,0,0,1,1.172,1.02,3.365,3.365,0,0,1,.6,1.507,3.446,3.446,0,0,1-.137,1.478,4.148,4.148,0,0,1-.739,1.344,5.615,5.615,0,0,1-1.188,1.095,6.281,6.281,0,0,1-1.667.819,4.238,4.238,0,0,1-1.83.162Z" transform="translate(3881.73 -1226.445)" fill="#fff"/>
  <path id="Контур_38" data-name="Контур 38" d="M-3703.921,1457.2l-2.122,1.265-5.741-9.631,2.122-1.265Z" transform="translate(3888.263 -1232.479)" fill="#fff"/>
  <path id="Контур_39" data-name="Контур 39" d="M-3736.372,1460.4a8.938,8.938,0,0,1,1.68-1.748,11.6,11.6,0,0,1,2.061-1.3,6.909,6.909,0,0,1,2.355-.7,5.547,5.547,0,0,1,2.24.21,5.353,5.353,0,0,1,1.953,1.111,6.336,6.336,0,0,1,1.484,1.988,6.338,6.338,0,0,1,.675,2.387,5.357,5.357,0,0,1-.306,2.226,5.555,5.555,0,0,1-1.2,1.906,6.9,6.9,0,0,1-1.991,1.442,8.977,8.977,0,0,1-2.366.806,4.856,4.856,0,0,1-2.277-.122l.722-2.475a3.471,3.471,0,0,0,1.373.206,4.058,4.058,0,0,0,1.539-.46,3.673,3.673,0,0,0,1.166-.875,3.223,3.223,0,0,0,.654-1.162,3.3,3.3,0,0,0,.124-1.341,4.115,4.115,0,0,0-.418-1.4,4.106,4.106,0,0,0-.861-1.191,3.3,3.3,0,0,0-1.137-.71,3.209,3.209,0,0,0-1.32-.187,3.655,3.655,0,0,0-1.4.393,4.724,4.724,0,0,0-1.169.78,5.249,5.249,0,0,0-.673.747l.806,1.634,1.8-.89,1.009,2.045-3.934,1.942Z" transform="translate(3902.034 -1237.543)" fill="#fff"/>
  <path id="Контур_40" data-name="Контур 40" d="M-3750.857,1476.183l-3.163,1.127-7.106-5.74-.03.01,2.615,7.34-2.327.829-3.764-10.562,3.043-1.084,7.289,5.876.03-.01-2.68-7.519,2.328-.829Z" transform="translate(3917.862 -1242.586)" fill="#fff"/>
  <path id="Контур_41" data-name="Контур 41" d="M-3785.484,1487.473a2.7,2.7,0,0,1,0,1.115,2.866,2.866,0,0,1-.414.989,2.854,2.854,0,0,1-.75.766,2.686,2.686,0,0,1-1.027.435,2.709,2.709,0,0,1-1.115,0,2.869,2.869,0,0,1-.989-.413,2.862,2.862,0,0,1-.766-.749,2.7,2.7,0,0,1-.435-1.027,2.7,2.7,0,0,1,0-1.115,2.876,2.876,0,0,1,.414-.989,2.863,2.863,0,0,1,.75-.766,2.7,2.7,0,0,1,1.027-.435,2.707,2.707,0,0,1,1.115,0,2.872,2.872,0,0,1,.989.414,2.856,2.856,0,0,1,.766.749A2.7,2.7,0,0,1-3785.484,1487.473Z" transform="translate(3932.652 -1253.566)" fill="#fff"/>
  <path id="Контур_42" data-name="Контур 42" d="M-3830.934,1487.819a5.415,5.415,0,0,1,.182-1.853,4.044,4.044,0,0,1,.8-1.511,4.1,4.1,0,0,1,1.416-1.06,5.557,5.557,0,0,1,2.016-.479,5.594,5.594,0,0,1,2.077.215,4.091,4.091,0,0,1,1.54.868,4.039,4.039,0,0,1,.986,1.4,5.416,5.416,0,0,1,.419,1.814l.443,6.875-2.465.159-.437-6.78a2.733,2.733,0,0,0-.228-.954,2.306,2.306,0,0,0-.516-.736,2.114,2.114,0,0,0-.752-.459,2.265,2.265,0,0,0-.92-.124,2.215,2.215,0,0,0-.889.24,2.145,2.145,0,0,0-.679.552,2.311,2.311,0,0,0-.417.8,2.727,2.727,0,0,0-.1.974l.437,6.78-2.465.159Z" transform="translate(3955.005 -1252.265)" fill="#fff"/>
  <path id="Контур_43" data-name="Контур 43" d="M-3853.16,1489.533l3.487,5.5-3.1-.125-2.23-4.021-2.453,3.832-2.991-.121,3.838-5.155-3.812-6.066,3.1.125,2.555,4.62,2.841-4.4,2.927.118Z" transform="translate(3971.528 -1252.53)" fill="#fff"/>
  <path id="Контур_44" data-name="Контур 44" d="M-3876.9,1493.168l-1.724-.771,6.226-11.663,1.708.769Z" transform="translate(3981.706 -1251.051)" fill="#fff"/>
  <path id="Контур_45" data-name="Контур 45" d="M-3903.132,1481.482a5.4,5.4,0,0,1,.672-1.736,4.044,4.044,0,0,1,1.175-1.242,4.11,4.11,0,0,1,1.648-.641,5.562,5.562,0,0,1,2.071.079,5.612,5.612,0,0,1,1.943.764,4.093,4.093,0,0,1,1.25,1.25,4.045,4.045,0,0,1,.576,1.61,5.427,5.427,0,0,1-.083,1.86l-1.417,6.742-2.418-.508,1.4-6.649a2.722,2.722,0,0,0,.036-.979,2.311,2.311,0,0,0-.3-.848,2.121,2.121,0,0,0-.6-.644,2.265,2.265,0,0,0-.853-.366,2.208,2.208,0,0,0-.921-.007,2.133,2.133,0,0,0-.8.349,2.291,2.291,0,0,0-.615.655,2.731,2.731,0,0,0-.362.911l-1.4,6.649-2.418-.508Z" transform="translate(3996.228 -1249.408)" fill="#fff"/>
  <path id="Контур_46" data-name="Контур 46" d="M-3914.753,1484.8l-2.372-.692,3.142-10.763,2.371.692Z" transform="translate(4003.271 -1246.911)" fill="#fff"/>
  <path id="Контур_47" data-name="Контур 47" d="M-3946.027,1475.552l-3.4-1.469a10.592,10.592,0,0,1-2.229-1.291,5.85,5.85,0,0,1-1.555-1.732,4.787,4.787,0,0,1-.622-2.175,5.87,5.87,0,0,1,.549-2.609,5.325,5.325,0,0,1,1.424-2,5.162,5.162,0,0,1,1.963-1.05,6.128,6.128,0,0,1,2.271-.184,7.809,7.809,0,0,1,2.339.613l3.708,1.6Zm1.273-9.18-1.178-.509a6.892,6.892,0,0,0-1.53-.471,3.4,3.4,0,0,0-1.4.025,2.775,2.775,0,0,0-1.2.638,3.764,3.764,0,0,0-.921,1.353,3.13,3.13,0,0,0-.284,1.438,2.85,2.85,0,0,0,.365,1.253,3.648,3.648,0,0,0,.891,1.032,5.465,5.465,0,0,0,1.281.769l1.338.578Z" transform="translate(4023.835 -1241.125)" fill="#fff"/>
  <path id="Контур_48" data-name="Контур 48" d="M-3972.217,1461.6l-6.651-3.714,1.112-1.991,4.494,2.509,1.019-1.825-4.245-2.37,1.112-1.991,4.245,2.369,1.111-1.991-4.742-2.648,1.112-1.991,6.9,3.852Z" transform="translate(4037.853 -1232.695)" fill="#fff"/>
  <path id="Контур_49" data-name="Контур 49" d="M-3995.477,1445.6a1.757,1.757,0,0,0,.358.923,2.914,2.914,0,0,0,.7.7,2.581,2.581,0,0,0,.494.26,2.17,2.17,0,0,0,.557.139,1.184,1.184,0,0,0,.541-.063.9.9,0,0,0,.434-.356.891.891,0,0,0,.123-.855,3.609,3.609,0,0,0-.534-.919q-.371-.482-.814-1.013a5.133,5.133,0,0,1-.725-1.145,2.948,2.948,0,0,1-.267-1.311,2.854,2.854,0,0,1,.568-1.51,3.61,3.61,0,0,1,1.206-1.152,3.3,3.3,0,0,1,1.43-.426,4,4,0,0,1,1.522.211,6.054,6.054,0,0,1,1.493.748,5.993,5.993,0,0,1,1.489,1.415,5.065,5.065,0,0,1,.835,1.87l-2.541.609a2.553,2.553,0,0,0-.352-1.187,2.73,2.73,0,0,0-.833-.9,2.707,2.707,0,0,0-.544-.284,1.985,1.985,0,0,0-.579-.135,1.187,1.187,0,0,0-.532.079.9.9,0,0,0-.419.348.949.949,0,0,0-.129.879,3.589,3.589,0,0,0,.525.96q.368.5.816,1.053a5.687,5.687,0,0,1,.736,1.171,3.052,3.052,0,0,1,.289,1.307,2.629,2.629,0,0,1-.525,1.462,3.364,3.364,0,0,1-1.186,1.109,3.446,3.446,0,0,1-1.427.409,4.13,4.13,0,0,1-1.52-.2,5.615,5.615,0,0,1-1.452-.71,6.309,6.309,0,0,1-1.368-1.256,4.231,4.231,0,0,1-.814-1.646Z" transform="translate(4048.524 -1227.598)" fill="#fff"/>
  <path id="Контур_50" data-name="Контур 50" d="M-4006.517,1440.1l-1.949-1.518,6.891-8.845,1.949,1.519Z" transform="translate(4054.43 -1222.488)" fill="#fff"/>
  <path id="Контур_51" data-name="Контур 51" d="M-4023.218,1412.195a8.931,8.931,0,0,1,2.239.931,11.56,11.56,0,0,1,1.959,1.447,6.9,6.9,0,0,1,1.511,1.938,5.535,5.535,0,0,1,.618,2.164,5.327,5.327,0,0,1-.326,2.223,6.335,6.335,0,0,1-1.312,2.1,6.328,6.328,0,0,1-1.979,1.5,5.336,5.336,0,0,1-2.184.524,5.542,5.542,0,0,1-2.211-.421,6.9,6.9,0,0,1-2.066-1.331,8.981,8.981,0,0,1-1.611-1.911,4.864,4.864,0,0,1-.714-2.165l2.568-.227a3.468,3.468,0,0,0,.308,1.354,4.061,4.061,0,0,0,.988,1.267,3.671,3.671,0,0,0,1.239.768,3.221,3.221,0,0,0,1.32.187,3.308,3.308,0,0,0,1.295-.372,4.132,4.132,0,0,0,1.153-.9,4.1,4.1,0,0,0,.8-1.235,3.327,3.327,0,0,0,.25-1.317,3.208,3.208,0,0,0-.306-1.3,3.656,3.656,0,0,0-.876-1.165,4.722,4.722,0,0,0-1.151-.806,5.232,5.232,0,0,0-.941-.355l-1.229,1.344,1.485,1.357-1.538,1.683-3.238-2.96Z" transform="translate(4066.095 -1212.663)" fill="#fff"/>
  <path id="Контур_52" data-name="Контур 52" d="M-4046,1404.334l-2.2-2.534,2.754-8.709-.021-.024-5.881,5.112-1.621-1.865,8.463-7.356,2.12,2.438-2.814,8.93.021.024,6.024-5.236,1.621,1.865Z" transform="translate(4079.358 -1199.649)" fill="#fff"/>
  <path id="Контур_53" data-name="Контур 53" d="M-4059.73,1375.657a2.7,2.7,0,0,1-1.037.408,2.876,2.876,0,0,1-1.072-.023,2.871,2.871,0,0,1-.987-.417,2.7,2.7,0,0,1-.78-.8,2.7,2.7,0,0,1-.408-1.037,2.883,2.883,0,0,1,.022-1.072,2.89,2.89,0,0,1,.417-.987,2.708,2.708,0,0,1,.8-.781,2.7,2.7,0,0,1,1.038-.408,2.875,2.875,0,0,1,1.072.022,2.875,2.875,0,0,1,.988.417,2.7,2.7,0,0,1,.78.8,2.7,2.7,0,0,1,.408,1.038,2.844,2.844,0,0,1-.023,1.071,2.845,2.845,0,0,1-.417.987A2.689,2.689,0,0,1-4059.73,1375.657Z" transform="translate(4085.564 -1189.313)" fill="#fff"/>
  <path id="Контур_54" data-name="Контур 54" d="M-4085.012,1348.86l-1.8-3.756a8.224,8.224,0,0,1-.568-1.554,3.752,3.752,0,0,1-.093-1.457,2.761,2.761,0,0,1,.546-1.28,3.58,3.58,0,0,1,1.345-1.022,3.817,3.817,0,0,1,1.623-.426,2.706,2.706,0,0,1,1.333.327,3.532,3.532,0,0,1,1.075.943,7.682,7.682,0,0,1,.861,1.413l.78,1.628,3.942-1.888,1.068,2.228Zm3.217-4.28-.711-1.486a3.233,3.233,0,0,0-.334-.551,1.7,1.7,0,0,0-.432-.407,1.137,1.137,0,0,0-.542-.179,1.3,1.3,0,0,0-.658.148,1.1,1.1,0,0,0-.536.476,1.314,1.314,0,0,0-.146.631,2.177,2.177,0,0,0,.133.7,7.034,7.034,0,0,0,.279.674l.547,1.142Z" transform="translate(4098.7 -1171.872)" fill="#fff"/>
  <path id="Контур_55" data-name="Контур 55" d="M-4094.967,1322.212l-1.5-4.072a7.655,7.655,0,0,1-.405-1.581,3.878,3.878,0,0,1,.055-1.455,2.766,2.766,0,0,1,.664-1.223,3.541,3.541,0,0,1,1.42-.886,3.29,3.29,0,0,1,2.108-.118,2.779,2.779,0,0,1,1.613,1.33l3.458-4.312,1.024,2.779-3.4,3.748.421,1.145,4.206-1.549.854,2.318Zm3.5-3.922-.5-1.367c-.076-.209-.165-.426-.265-.653a2.191,2.191,0,0,0-.367-.582,1.16,1.16,0,0,0-.521-.34,1.138,1.138,0,0,0-.737.061,1.186,1.186,0,0,0-.579.4,1.168,1.168,0,0,0-.211.55,1.973,1.973,0,0,0,.042.643,5.116,5.116,0,0,0,.19.655l.558,1.516Z" transform="translate(4103.968 -1155.367)" fill="#fff"/>
  <path id="Контур_56" data-name="Контур 56" d="M-4098.072,1296.109a6.328,6.328,0,0,1-2.476.152,5.359,5.359,0,0,1-2.111-.771,5.565,5.565,0,0,1-1.608-1.573,6.907,6.907,0,0,1-.985-2.252,6.891,6.891,0,0,1-.187-2.451,5.566,5.566,0,0,1,.681-2.145,5.364,5.364,0,0,1,1.5-1.672,6.324,6.324,0,0,1,2.258-1.028,6.317,6.317,0,0,1,2.475-.152,5.35,5.35,0,0,1,2.11.771,5.543,5.543,0,0,1,1.609,1.573,6.921,6.921,0,0,1,.986,2.251,6.927,6.927,0,0,1,.187,2.451,5.549,5.549,0,0,1-.681,2.145,5.347,5.347,0,0,1-1.5,1.672A6.326,6.326,0,0,1-4098.072,1296.109Zm-.621-2.49a4.112,4.112,0,0,0,1.347-.589,3.31,3.31,0,0,0,.936-.96,3.22,3.22,0,0,0,.464-1.25,3.684,3.684,0,0,0-.086-1.456,3.671,3.671,0,0,0-.608-1.325,3.215,3.215,0,0,0-1-.886,3.321,3.321,0,0,0-1.276-.408,4.121,4.121,0,0,0-1.466.112,4.134,4.134,0,0,0-1.339.587,3.306,3.306,0,0,0-.943.961,3.223,3.223,0,0,0-.464,1.25,3.681,3.681,0,0,0,.086,1.456,3.658,3.658,0,0,0,.608,1.325,3.211,3.211,0,0,0,1,.886,3.312,3.312,0,0,0,1.285.406A4.123,4.123,0,0,0-4098.693,1293.619Z" transform="translate(4108.765 -1140.951)" fill="#fff"/>
  <path id="Контур_57" data-name="Контур 57" d="M-4108.2,1268.365l.452,3.167-2.163.308-1.253-8.78,2.165-.308.451,3.167,8.937-1.275.349,2.446Z" transform="translate(4111.949 -1128.963)" fill="#fff"/>
  <path id="Контур_58" data-name="Контур 58" d="M-4106.816,1243.214a6.33,6.33,0,0,1-2.455-.354,5.346,5.346,0,0,1-1.909-1.184,5.534,5.534,0,0,1-1.256-1.868,6.891,6.891,0,0,1-.508-2.4,6.919,6.919,0,0,1,.314-2.438,5.556,5.556,0,0,1,1.1-1.962,5.359,5.359,0,0,1,1.81-1.332,6.331,6.331,0,0,1,2.419-.548,6.324,6.324,0,0,1,2.455.354,5.348,5.348,0,0,1,1.909,1.183,5.566,5.566,0,0,1,1.256,1.868,6.922,6.922,0,0,1,.507,2.4,6.918,6.918,0,0,1-.314,2.438,5.547,5.547,0,0,1-1.1,1.962,5.351,5.351,0,0,1-1.809,1.332A6.337,6.337,0,0,1-4106.816,1243.214Zm-.1-2.563a4.109,4.109,0,0,0,1.438-.3,3.311,3.311,0,0,0,1.111-.75,3.215,3.215,0,0,0,.708-1.13,3.663,3.663,0,0,0,.211-1.443,3.649,3.649,0,0,0-.326-1.422,3.205,3.205,0,0,0-.8-1.069,3.314,3.314,0,0,0-1.167-.659,4.106,4.106,0,0,0-1.458-.188,4.125,4.125,0,0,0-1.43.3,3.313,3.313,0,0,0-1.119.75,3.219,3.219,0,0,0-.708,1.129,3.684,3.684,0,0,0-.212,1.443,3.669,3.669,0,0,0,.326,1.422,3.214,3.214,0,0,0,.8,1.07,3.3,3.3,0,0,0,1.175.658A4.125,4.125,0,0,0-4106.918,1240.65Z" transform="translate(4112.95 -1111.245)" fill="#fff"/>
  <path id="Контур_59" data-name="Контур 59" d="M-4110.231,1212.959l-.2,3.193-2.182-.133.541-8.852,2.181.133-.194,3.193,9.01.55-.15,2.466Z" transform="translate(4112.758 -1097.83)" fill="#fff"/>
  <path id="Контур_60" data-name="Контур 60" d="M-4104.268,1188.079l-6.987,3.2.459-3.038,4.5-1.721-3.773-3.117.438-2.9,5.728,5.126,4.729.715-.369,2.443Z" transform="translate(4112 -1082.9)" fill="#fff"/>
  <path id="Контур_61" data-name="Контур 61" d="M-4106.488,1166.5l1.006-4.042a8.21,8.21,0,0,1,.552-1.56,3.732,3.732,0,0,1,.857-1.182,2.767,2.767,0,0,1,1.236-.639,3.579,3.579,0,0,1,1.688.069,3.822,3.822,0,0,1,1.522.705,2.7,2.7,0,0,1,.819,1.1,3.524,3.524,0,0,1,.228,1.411,7.7,7.7,0,0,1-.236,1.638l-.436,1.752,4.241,1.055-.6,2.4Zm5.207-1.251.4-1.6a3.208,3.208,0,0,0,.093-.637,1.715,1.715,0,0,0-.074-.59,1.133,1.133,0,0,0-.3-.483,1.3,1.3,0,0,0-.6-.305,1.113,1.113,0,0,0-.716.026,1.31,1.31,0,0,0-.514.395,2.167,2.167,0,0,0-.343.624,7.222,7.222,0,0,0-.214.7l-.306,1.23Z" transform="translate(4109.331 -1070.855)" fill="#fff"/>
  <path id="Контур_62" data-name="Контур 62" d="M-4100.047,1149.057l.761-2.35,10.668,3.452-.76,2.35Z" transform="translate(4105.723 -1063.968)" fill="#fff"/>
  <path id="Контур_63" data-name="Контур 63" d="M-4096.047,1126.981l1.292-3.1,9.026-1.4.012-.029-7.192-3,.951-2.28,10.349,4.315-1.243,2.982-9.251,1.445-.012.029,7.367,3.072-.951,2.28Z" transform="translate(4103.483 -1047.426)" fill="#fff"/>
  <path id="Контур_64" data-name="Контур 64" d="M-4067.072,1095.631a8.918,8.918,0,0,1-.4,2.392,11.6,11.6,0,0,1-.964,2.237,6.909,6.909,0,0,1-1.544,1.912,5.538,5.538,0,0,1-1.967,1.095,5.348,5.348,0,0,1-2.238.188,6.324,6.324,0,0,1-2.349-.8,6.35,6.35,0,0,1-1.906-1.586,5.355,5.355,0,0,1-1.007-2.008,5.568,5.568,0,0,1-.092-2.249,6.919,6.919,0,0,1,.826-2.314,8.963,8.963,0,0,1,1.5-2,4.858,4.858,0,0,1,1.946-1.188l.806,2.449a3.477,3.477,0,0,0-1.249.607,4.069,4.069,0,0,0-1.009,1.25,3.652,3.652,0,0,0-.466,1.382,3.22,3.22,0,0,0,.118,1.328,3.3,3.3,0,0,0,.657,1.176,4.141,4.141,0,0,0,1.137.919,4.124,4.124,0,0,0,1.384.495,3.312,3.312,0,0,0,1.339-.057,3.215,3.215,0,0,0,1.195-.592,3.671,3.671,0,0,0,.936-1.119,4.734,4.734,0,0,0,.523-1.3,5.247,5.247,0,0,0,.132-1l-1.588-.891-.984,1.754-1.989-1.116,2.146-3.826Z" transform="translate(4094.276 -1032.939)" fill="#fff"/>
  <path id="Контур_65" data-name="Контур 65" d="M-4051.7,1074.245a2.7,2.7,0,0,1-.736-.837,2.869,2.869,0,0,1-.343-1.016,2.867,2.867,0,0,1,.057-1.07,2.683,2.683,0,0,1,.484-1,2.7,2.7,0,0,1,.838-.736,2.875,2.875,0,0,1,1.015-.343,2.875,2.875,0,0,1,1.07.057,2.7,2.7,0,0,1,1,.484,2.7,2.7,0,0,1,.737.837,2.878,2.878,0,0,1,.343,1.016,2.866,2.866,0,0,1-.057,1.07,2.7,2.7,0,0,1-.484,1,2.7,2.7,0,0,1-.838.736,2.862,2.862,0,0,1-1.015.342,2.862,2.862,0,0,1-1.07-.057A2.7,2.7,0,0,1-4051.7,1074.245Z" transform="translate(4079.266 -1020.564)" fill="#fff"/>
  <path id="Контур_66" data-name="Контур 66" d="M-4039.616,1040.819l2.621-2.62a10.569,10.569,0,0,1,2.022-1.595,5.851,5.851,0,0,1,2.184-.806,4.775,4.775,0,0,1,2.25.225,5.874,5.874,0,0,1,2.223,1.474,5.33,5.33,0,0,1,1.332,2.061,5.162,5.162,0,0,1,.251,2.212,6.132,6.132,0,0,1-.667,2.178,7.819,7.819,0,0,1-1.435,1.948l-2.856,2.855Zm8.061,4.572.908-.907a6.908,6.908,0,0,0,1-1.248,3.394,3.394,0,0,0,.493-1.31,2.771,2.771,0,0,0-.15-1.349,3.763,3.763,0,0,0-.918-1.355,3.129,3.129,0,0,0-1.231-.8,2.862,2.862,0,0,0-1.3-.124,3.649,3.649,0,0,0-1.288.447,5.445,5.445,0,0,0-1.187.907l-1.031,1.03Z" transform="translate(4071.876 -1001.823)" fill="#fff"/>
  <path id="Контур_67" data-name="Контур 67" d="M-4017.747,1020.054l5.9-4.817,1.441,1.767-3.987,3.254,1.321,1.62,3.767-3.074,1.442,1.767-3.767,3.075,1.442,1.766,4.208-3.434,1.442,1.767-6.123,5Z" transform="translate(4059.628 -990.333)" fill="#fff"/>
  <path id="Контур_68" data-name="Контур 68" d="M-4000.084,1004.047l2.347-1.563,6.38,4.58.026-.018-1.727-7.679,2.2-1.466,2.366,11.9-1.648,1.1Z" transform="translate(4049.736 -980.625)" fill="#fff"/>
  <path id="Контур_69" data-name="Контур 69" d="M-3974.158,990.607l6.72-3.587,1.074,2.012-4.541,2.423.984,1.844,4.289-2.289,1.074,2.012-4.289,2.289,1.074,2.012,4.792-2.557,1.073,2.012-6.972,3.721Z" transform="translate(4035.215 -974.529)" fill="#fff"/>
  <path id="Контур_70" data-name="Контур 70" d="M-3951.681,982.418l2.271-.972,3.513,8.212,4.208-1.8.9,2.1-6.479,2.772Z" transform="translate(4022.625 -971.408)" fill="#fff"/>
  <path id="Контур_71" data-name="Контур 71" d="M-3929.345,977.822a6.32,6.32,0,0,1-.3-2.462,5.352,5.352,0,0,1,.645-2.152,5.55,5.55,0,0,1,1.476-1.7,6.928,6.928,0,0,1,2.188-1.118,6.938,6.938,0,0,1,2.435-.332,5.561,5.561,0,0,1,2.182.552,5.363,5.363,0,0,1,1.758,1.4,6.331,6.331,0,0,1,1.16,2.192,6.33,6.33,0,0,1,.3,2.462,5.357,5.357,0,0,1-.645,2.153,5.554,5.554,0,0,1-1.475,1.7,6.911,6.911,0,0,1-2.189,1.118,6.906,6.906,0,0,1-2.436.332,5.549,5.549,0,0,1-2.181-.552,5.348,5.348,0,0,1-1.758-1.4A6.332,6.332,0,0,1-3929.345,977.822Zm2.448-.768a4.11,4.11,0,0,0,.668,1.309,3.3,3.3,0,0,0,1.013.877,3.207,3.207,0,0,0,1.275.389,3.665,3.665,0,0,0,1.448-.172,3.662,3.662,0,0,0,1.287-.686,3.218,3.218,0,0,0,.825-1.047,3.332,3.332,0,0,0,.332-1.3,4.1,4.1,0,0,0-.2-1.456,4.119,4.119,0,0,0-.665-1.3,3.3,3.3,0,0,0-1.016-.884,3.217,3.217,0,0,0-1.275-.389,3.664,3.664,0,0,0-1.448.172,3.655,3.655,0,0,0-1.288.685,3.227,3.227,0,0,0-.825,1.047,3.312,3.312,0,0,0-.329,1.307A4.144,4.144,0,0,0-3926.9,977.054Z" transform="translate(4010.295 -965.025)" fill="#fff"/>
  <path id="Контур_72" data-name="Контур 72" d="M-3899.827,964.647l4.084-.814a8.244,8.244,0,0,1,1.646-.167,3.752,3.752,0,0,1,1.434.271,2.765,2.765,0,0,1,1.105.846,3.575,3.575,0,0,1,.658,1.556,3.82,3.82,0,0,1,.011,1.677,2.7,2.7,0,0,1-.647,1.211,3.528,3.528,0,0,1-1.179.808,7.726,7.726,0,0,1-1.583.485l-1.771.353.855,4.286-2.423.483Zm3.351,4.177,1.615-.323a3.148,3.148,0,0,0,.617-.187,1.7,1.7,0,0,0,.5-.318,1.135,1.135,0,0,0,.307-.481,1.3,1.3,0,0,0,.02-.674,1.111,1.111,0,0,0-.329-.637,1.31,1.31,0,0,0-.576-.3,2.157,2.157,0,0,0-.711-.044,7.218,7.218,0,0,0-.722.1l-1.243.248Z" transform="translate(3993.583 -961.449)" fill="#fff"/>
  <path id="Контур_73" data-name="Контур 73" d="M-3874.511,959.673l3.725-.308,3.177,7.079.032,0,1.984-7.506,3.709-.307.925,11.174-2.462.2-.71-8.57-.032,0-2.226,8.813-1.878.155-3.535-8.336-.032,0,.71,8.57-2.462.2Z" transform="translate(3979.404 -958.627)" fill="#fff"/>
  <path id="Контур_74" data-name="Контур 74" d="M-3837.737,958.737l7.614.228-.068,2.28-5.145-.154-.062,2.09,4.86.145-.068,2.28-4.86-.145-.068,2.279,5.429.162-.068,2.28-7.9-.236Z" transform="translate(3958.995 -958.688)" fill="#fff"/>
  <path id="Контур_75" data-name="Контур 75" d="M-3813.837,959.744l3.327.45,3.681,8.36.031,0,1.044-7.721,2.448.331-1.5,11.111-3.2-.432-3.781-8.566-.031,0-1.069,7.911-2.448-.331Z" transform="translate(3946.262 -959.253)" fill="#fff"/>
  <path id="Контур_76" data-name="Контур 76" d="M-3780.442,967l-3.11-.747.511-2.125,8.624,2.072-.511,2.125-3.111-.747-2.109,8.777-2.4-.578Z" transform="translate(3928.46 -961.707)" fill="#fff"/>
  <path id="Контур_77" data-name="Контур 77" d="M-3750.619,983.891a2.693,2.693,0,0,1,.593-.944,2.851,2.851,0,0,1,.876-.618,2.872,2.872,0,0,1,1.042-.25,2.7,2.7,0,0,1,1.1.179,2.7,2.7,0,0,1,.944.593,2.88,2.88,0,0,1,.618.876,2.878,2.878,0,0,1,.25,1.042,2.693,2.693,0,0,1-.179,1.1,2.7,2.7,0,0,1-.593.945,2.876,2.876,0,0,1-.876.617,2.873,2.873,0,0,1-1.043.249,2.686,2.686,0,0,1-1.1-.178,2.691,2.691,0,0,1-.944-.593,2.867,2.867,0,0,1-.617-.876,2.868,2.868,0,0,1-.25-1.042A2.7,2.7,0,0,1-3750.619,983.891Z" transform="translate(3910.116 -971.76)" fill="#fff"/>
</svg>
