<svg width="48" height="48" viewBox="0 0 48 48" fill="none" xmlns="http://www.w3.org/2000/svg">
<path d="M7.69998 37.4001C7.39998 37.4001 7.14164 37.2918 6.92498 37.0751C6.70831 36.8584 6.59998 36.6001 6.59998 36.3001V30.5001C7.83331 29.8334 8.82498 28.9334 9.57498 27.8001C10.325 26.6668 10.7 25.4001 10.7 24.0001C10.7 22.6001 10.325 21.3251 9.57498 20.1751C8.82498 19.0251 7.83331 18.1334 6.59998 17.5001V11.7001C6.59998 11.4001 6.70831 11.1418 6.92498 10.9251C7.14164 10.7084 7.39998 10.6001 7.69998 10.6001H40.3C40.6 10.6001 40.8583 10.7084 41.075 10.9251C41.2916 11.1418 41.4 11.4001 41.4 11.7001V36.3001C41.4 36.6001 41.2916 36.8584 41.075 37.0751C40.8583 37.2918 40.6 37.4001 40.3 37.4001H7.69998ZM7.69998 36.3001H40.3V11.7001H7.69998V16.9001C8.96664 17.6668 9.96664 18.6751 10.7 19.9251C11.4333 21.1751 11.8 22.5334 11.8 24.0001C11.8 25.4668 11.4333 26.8251 10.7 28.0751C9.96664 29.3251 8.96664 30.3334 7.69998 31.1001V36.3001ZM17.8 30.8501L35.3 26.1501C35.7333 26.0168 36.0916 25.8001 36.375 25.5001C36.6583 25.2001 36.7333 24.8334 36.6 24.4001C36.5 23.9668 36.2583 23.6834 35.875 23.5501C35.4916 23.4168 35.1 23.4001 34.7 23.5001L29.55 24.9001L21.45 17.2001L19.6 17.6001L24.5 26.2001L18.6 27.7001L16.05 25.7001L15.2 26.0001L17.8 30.8501Z" fill="white"/>
</svg>
