<svg width="48" height="48" viewBox="0 0 48 48" fill="none" xmlns="http://www.w3.org/2000/svg">
<path d="M11.3 39.4001C10.5333 39.4001 9.89164 39.1418 9.37498 38.6251C8.85831 38.1084 8.59998 37.4668 8.59998 36.7001V11.3001C8.59998 10.5334 8.85831 9.89176 9.37498 9.3751C9.89164 8.85843 10.5333 8.6001 11.3 8.6001H21.6C21.1 7.6001 21.1166 6.64176 21.65 5.7251C22.1833 4.80843 22.9666 4.3501 24 4.3501C25.0333 4.3501 25.8166 4.80843 26.35 5.7251C26.8833 6.64176 26.9 7.6001 26.4 8.6001H36.7C37.4666 8.6001 38.1083 8.85843 38.625 9.3751C39.1416 9.89176 39.4 10.5334 39.4 11.3001V36.7001C39.4 37.4668 39.1416 38.1084 38.625 38.6251C38.1083 39.1418 37.4666 39.4001 36.7 39.4001H11.3ZM24 8.5001C24.4333 8.5001 24.7916 8.35843 25.075 8.0751C25.3583 7.79176 25.5 7.43343 25.5 7.0001C25.5 6.6001 25.3583 6.2501 25.075 5.9501C24.7916 5.6501 24.4333 5.5001 24 5.5001C23.5666 5.5001 23.2083 5.6501 22.925 5.9501C22.6416 6.2501 22.5 6.6001 22.5 7.0001C22.5 7.43343 22.6416 7.79176 22.925 8.0751C23.2083 8.35843 23.5666 8.5001 24 8.5001ZM9.69998 37.1501C11.5666 35.3501 13.7083 33.9168 16.125 32.8501C18.5416 31.7834 21.1666 31.2501 24 31.2501C26.8333 31.2501 29.4583 31.7834 31.875 32.8501C34.2916 33.9168 36.4333 35.3501 38.3 37.1501V11.3001C38.3 10.9001 38.1333 10.5334 37.8 10.2001C37.4666 9.86676 37.1 9.7001 36.7 9.7001H11.3C10.9 9.7001 10.5333 9.86676 10.2 10.2001C9.86664 10.5334 9.69998 10.9001 9.69998 11.3001V37.1501ZM24.05 26.5001C25.6166 26.5001 26.95 25.9501 28.05 24.8501C29.15 23.7501 29.7 22.4001 29.7 20.8001C29.7 19.2334 29.15 17.9001 28.05 16.8001C26.95 15.7001 25.6166 15.1501 24.05 15.1501C22.45 15.1501 21.1 15.7001 20 16.8001C18.9 17.9001 18.35 19.2334 18.35 20.8001C18.35 22.4001 18.9 23.7501 20 24.8501C21.1 25.9501 22.45 26.5001 24.05 26.5001ZM10.45 38.3001H37.6V38.0001C35.6 36.1001 33.45 34.6834 31.15 33.7501C28.85 32.8168 26.4666 32.3501 24 32.3501C21.5666 32.3501 19.2 32.8084 16.9 33.7251C14.6 34.6418 12.45 36.0334 10.45 37.9001V38.3001ZM24.05 25.4001C22.7833 25.4001 21.7 24.9501 20.8 24.0501C19.9 23.1501 19.45 22.0668 19.45 20.8001C19.45 19.5334 19.9 18.4584 20.8 17.5751C21.7 16.6918 22.7833 16.2501 24.05 16.2501C25.3166 16.2501 26.3916 16.7001 27.275 17.6001C28.1583 18.5001 28.6 19.5668 28.6 20.8001C28.6 22.0668 28.15 23.1501 27.25 24.0501C26.35 24.9501 25.2833 25.4001 24.05 25.4001Z" fill="white"/>
</svg>
