<svg width="25" height="24" viewBox="0 0 25 24" fill="none" xmlns="http://www.w3.org/2000/svg">
<path d="M19.913 12.27C19.873 11.65 19.663 11.18 19.293 10.86C18.923 10.54 18.463 10.38 17.913 10.38C17.333 10.38 16.833 10.55 16.523 10.89C16.193 11.23 15.983 11.69 15.903 12.27M22.253 12.04C22.333 12.45 22.333 13.04 22.333 13.81H15.833C15.883 14.71 16.183 15.33 16.773 15.69C17.123 15.92 17.553 16.03 18.063 16.03C18.593 16.03 19.023 15.89 19.333 15.62C19.533 15.47 19.693 15.27 19.833 15H22.213C22.153 15.54 21.863 16.07 21.333 16.62C20.553 17.5 19.433 17.92 17.993 17.92C16.803 17.92 15.763 17.55 14.833 16.82C13.953 16.09 13.493 14.9 13.493 13.25C13.493 11.7 13.903 10.5 14.723 9.69999C15.543 8.86999 16.603 8.45999 17.913 8.45999C18.683 8.45999 19.383 8.59999 20.003 8.87999C20.623 9.15999 21.143 9.58999 21.543 10.2C21.913 10.73 22.143 11.34 22.253 12.04ZM9.91301 14.07C9.91301 13.42 9.64301 12.97 9.12301 12.73C8.83301 12.6 8.41301 12.53 7.87301 12.5H5.20301V15.84H7.83301C8.37301 15.84 8.79301 15.77 9.09301 15.62C9.64301 15.35 9.91301 14.83 9.91301 14.07ZM5.20301 10.46H7.83301C8.37301 10.46 8.83301 10.36 9.15301 10.15C9.49301 9.94999 9.65301 9.57999 9.65301 9.05999C9.65301 8.49999 9.43301 8.09999 8.99301 7.90999C8.60301 7.77999 8.11301 7.71999 7.52301 7.71999H5.20301M12.053 12.42C12.373 12.92 12.533 13.53 12.533 14.24C12.533 15 12.333 15.64 11.983 16.23C11.743 16.62 11.453 16.94 11.103 17.21C10.703 17.5 10.233 17.72 9.69301 17.83C9.15301 17.94 8.57301 18 7.94301 18H2.33301V5.54999H8.33301C9.86301 5.57999 10.933 5.99999 11.563 6.87999C11.943 7.40999 12.133 8.03999 12.133 8.77999C12.133 9.53999 11.943 10.15 11.563 10.61C11.333 10.87 11.033 11.11 10.613 11.32C11.243 11.55 11.723 11.92 12.053 12.42ZM20.393 7.31999H15.383V6.06999H20.393V7.31999Z" fill="white"/>
</svg>
