<svg width="24" height="24" viewBox="0 0 24 24" fill="none" xmlns="http://www.w3.org/2000/svg">
<path d="M6.4999 9.99978C6.2769 9.99978 6.0629 10.0338 5.8499 10.0648C5.9189 9.83278 5.9899 9.59679 6.1039 9.38479C6.2179 9.07679 6.3959 8.80979 6.5729 8.54079C6.7209 8.24979 6.9819 8.05278 7.1739 7.80378C7.3749 7.56178 7.6489 7.40078 7.8659 7.19978C8.0789 6.98978 8.3579 6.88478 8.5799 6.73678C8.8119 6.60378 9.0139 6.45679 9.2299 6.38679L9.7689 6.16478L10.2429 5.96778L9.7579 4.02979L9.1609 4.17378C8.9699 4.22178 8.7369 4.27778 8.4719 4.34478C8.2009 4.39478 7.9119 4.53179 7.5899 4.65679C7.2719 4.79879 6.9039 4.89479 6.5619 5.12279C6.2179 5.34079 5.8209 5.52279 5.4709 5.81479C5.1319 6.11579 4.7229 6.37679 4.4209 6.75979C4.0909 7.11779 3.7649 7.49378 3.5119 7.92178C3.2189 8.32978 3.0199 8.77778 2.8099 9.22078C2.6199 9.66378 2.4669 10.1168 2.3419 10.5568C2.1049 11.4388 1.9989 12.2768 1.9579 12.9938C1.9239 13.7118 1.9439 14.3088 1.9859 14.7408C2.0009 14.9448 2.0289 15.1428 2.0489 15.2798L2.0739 15.4478L2.0999 15.4418C2.27776 16.2726 2.6872 17.0361 3.28086 17.644C3.87452 18.2518 4.62814 18.6792 5.45454 18.8766C6.28094 19.074 7.14635 19.0335 7.95066 18.7596C8.75496 18.4858 9.46531 17.9898 9.99951 17.3291C10.5337 16.6684 10.8699 15.8699 10.9693 15.0261C11.0687 14.1823 10.9271 13.3275 10.561 12.5608C10.1949 11.7941 9.61924 11.1466 8.90055 10.6934C8.18187 10.2402 7.34956 9.99973 6.4999 9.99978V9.99978ZM17.4999 9.99978C17.2769 9.99978 17.0629 10.0338 16.8499 10.0648C16.9189 9.83278 16.9899 9.59679 17.1039 9.38479C17.2179 9.07679 17.3959 8.80979 17.5729 8.54079C17.7209 8.24979 17.9819 8.05278 18.1739 7.80378C18.3749 7.56178 18.6489 7.40078 18.8659 7.19978C19.0789 6.98978 19.3579 6.88478 19.5799 6.73678C19.8119 6.60378 20.0139 6.45679 20.2299 6.38679L20.7689 6.16478L21.2429 5.96778L20.7579 4.02979L20.1609 4.17378C19.9699 4.22178 19.7369 4.27778 19.4719 4.34478C19.2009 4.39478 18.9119 4.53179 18.5899 4.65679C18.2729 4.79979 17.9039 4.89479 17.5619 5.12379C17.2179 5.34179 16.8209 5.52378 16.4709 5.81578C16.1319 6.11678 15.7229 6.37779 15.4209 6.75979C15.0909 7.11779 14.7649 7.49378 14.5119 7.92178C14.2189 8.32978 14.0199 8.77778 13.8099 9.22078C13.6199 9.66378 13.4669 10.1168 13.3419 10.5568C13.1049 11.4388 12.9989 12.2768 12.9579 12.9938C12.9239 13.7118 12.9439 14.3088 12.9859 14.7408C13.0009 14.9448 13.0289 15.1428 13.0489 15.2798L13.0739 15.4478L13.0999 15.4418C13.2778 16.2726 13.6872 17.0361 14.2809 17.644C14.8745 18.2518 15.6281 18.6792 16.4545 18.8766C17.2809 19.074 18.1463 19.0335 18.9507 18.7596C19.755 18.4858 20.4653 17.9898 20.9995 17.3291C21.5337 16.6684 21.8699 15.8699 21.9693 15.0261C22.0687 14.1823 21.9271 13.3275 21.561 12.5608C21.1949 11.7941 20.6192 11.1466 19.9006 10.6934C19.1819 10.2402 18.3496 9.99973 17.4999 9.99978V9.99978Z" fill="white"/>
</svg>
