<svg width="25" height="24" viewBox="0 0 25 24" fill="none" xmlns="http://www.w3.org/2000/svg">
<path fill-rule="evenodd" clip-rule="evenodd" d="M13.333 17.5102C14.7616 17.5102 16.1902 16.898 17.2106 16.0816L17.8228 15.4694L21.0881 18.7347L20.2718 19.3469C18.4351 20.9796 15.9861 22 13.333 22C7.61873 22 3.33301 17.7143 3.33301 12C3.33301 6.28571 7.61873 2 13.333 2C15.9861 2 18.4351 3.0204 20.2718 4.65306L21.0881 5.2653L17.8228 8.32653L17.2106 7.71428C16.1902 6.69387 14.7616 6.28571 13.333 6.28571C10.0677 6.28571 7.8228 8.53061 7.8228 11.7959C7.8228 15.0612 10.0677 17.5102 13.333 17.5102ZM16.3939 12.0002C16.3939 13.8036 14.932 15.2655 13.1286 15.2655C11.3252 15.2655 9.86328 13.8036 9.86328 12.0002C9.86328 10.1968 11.3252 8.73486 13.1286 8.73486C14.932 8.73486 16.3939 10.1968 16.3939 12.0002Z" fill="white"/>
</svg>
