<svg width="100" height="100" viewBox="0 0 100 100" fill="none" xmlns="http://www.w3.org/2000/svg">
<rect width="100" height="100" rx="50" fill="white"/>
<path d="M30.0176 38.4395V40.0566C29.2285 39.3965 28.4121 39.0664 27.5684 39.0664C26.6387 39.0664 25.8555 39.4004 25.2188 40.0684C24.5781 40.7324 24.2578 41.5449 24.2578 42.5059C24.2578 43.4551 24.5781 44.2559 25.2188 44.9082C25.8594 45.5605 26.6445 45.8867 27.5742 45.8867C28.0547 45.8867 28.4629 45.8086 28.7988 45.6523C28.9863 45.5742 29.1797 45.4688 29.3789 45.3359C29.582 45.2031 29.7949 45.043 30.0176 44.8555V46.502C29.2363 46.9434 28.416 47.1641 27.5566 47.1641C26.2637 47.1641 25.1602 46.7129 24.2461 45.8105C23.3359 44.9004 22.8809 43.8027 22.8809 42.5176C22.8809 41.3652 23.2617 40.3379 24.0234 39.4355C24.9609 38.3301 26.1738 37.7773 27.6621 37.7773C28.4746 37.7773 29.2598 37.998 30.0176 38.4395ZM31.2363 42.4355C31.2363 41.1621 31.7031 40.0684 32.6367 39.1543C33.5664 38.2402 34.6836 37.7832 35.9883 37.7832C37.2773 37.7832 38.3828 38.2441 39.3047 39.166C40.2305 40.0879 40.6934 41.1953 40.6934 42.4883C40.6934 43.7891 40.2285 44.8926 39.2988 45.7988C38.3652 46.709 37.2383 47.1641 35.918 47.1641C34.75 47.1641 33.7012 46.7598 32.7715 45.9512C31.748 45.0566 31.2363 43.8848 31.2363 42.4355ZM32.6133 42.4531C32.6133 43.4531 32.9492 44.2754 33.6211 44.9199C34.2891 45.5645 35.0605 45.8867 35.9355 45.8867C36.8848 45.8867 37.6855 45.5586 38.3379 44.9023C38.9902 44.2383 39.3164 43.4297 39.3164 42.4766C39.3164 41.5117 38.9941 40.7031 38.3496 40.0508C37.709 39.3945 36.916 39.0664 35.9707 39.0664C35.0293 39.0664 34.2344 39.3945 33.5859 40.0508C32.9375 40.6992 32.6133 41.5 32.6133 42.4531ZM42.0938 47L43.998 37.2734L47.1035 44.3047L50.3203 37.2734L52.0312 47H50.6309L49.7578 41.5391L47.0801 47.416L44.4785 41.5332L43.5059 47H42.0938ZM55.3184 37.9531V47H53.9531V37.9531H55.3184ZM57.4922 47V37.3379L64.0898 44.2402V37.9531H65.4551V47.5508L58.8574 40.666V47H57.4922ZM72.375 42.2891H76.1133V42.5879C76.1133 43.2676 76.0332 43.8691 75.873 44.3926C75.7168 44.877 75.4531 45.3301 75.082 45.752C74.2422 46.6973 73.1738 47.1699 71.877 47.1699C70.6113 47.1699 69.5273 46.7129 68.625 45.7988C67.7227 44.8809 67.2715 43.7793 67.2715 42.4941C67.2715 41.1816 67.7305 40.0684 68.6484 39.1543C69.5664 38.2363 70.6836 37.7773 72 37.7773C72.707 37.7773 73.3672 37.9219 73.9805 38.2109C74.5664 38.5 75.1426 38.9688 75.709 39.6172L74.7363 40.5488C73.9941 39.5605 73.0898 39.0664 72.0234 39.0664C71.0664 39.0664 70.2637 39.3965 69.6152 40.0566C68.9668 40.7051 68.6426 41.5176 68.6426 42.4941C68.6426 43.502 69.0039 44.332 69.7266 44.9844C70.4023 45.5898 71.1348 45.8926 71.9238 45.8926C72.5957 45.8926 73.1992 45.666 73.7344 45.2129C74.2695 44.7559 74.5684 44.209 74.6309 43.5723H72.375V42.2891ZM36.4102 55.3008L35.3027 55.957C35.0957 55.5977 34.8984 55.3633 34.7109 55.2539C34.5156 55.1289 34.2637 55.0664 33.9551 55.0664C33.5762 55.0664 33.2617 55.1738 33.0117 55.3887C32.7617 55.5996 32.6367 55.8652 32.6367 56.1855C32.6367 56.627 32.9648 56.9824 33.6211 57.252L34.5234 57.6211C35.2578 57.918 35.7949 58.2812 36.1348 58.7109C36.4746 59.1367 36.6445 59.6602 36.6445 60.2812C36.6445 61.1133 36.3672 61.8008 35.8125 62.3438C35.2539 62.8906 34.5605 63.1641 33.7324 63.1641C32.9473 63.1641 32.2988 62.9316 31.7871 62.4668C31.2832 62.002 30.9688 61.3477 30.8438 60.5039L32.2266 60.1992C32.2891 60.7305 32.3984 61.0977 32.5547 61.3008C32.8359 61.6914 33.2461 61.8867 33.7852 61.8867C34.2109 61.8867 34.5645 61.7441 34.8457 61.459C35.127 61.1738 35.2676 60.8125 35.2676 60.375C35.2676 60.1992 35.2422 60.0391 35.1914 59.8945C35.1445 59.7461 35.0684 59.6113 34.9629 59.4902C34.8613 59.3652 34.7285 59.25 34.5645 59.1445C34.4004 59.0352 34.2051 58.9316 33.9785 58.834L33.1055 58.4707C31.8672 57.9473 31.248 57.1816 31.248 56.1738C31.248 55.4941 31.5078 54.9258 32.0273 54.4688C32.5469 54.0078 33.1934 53.7773 33.9668 53.7773C35.0098 53.7773 35.8242 54.2852 36.4102 55.3008ZM37.8398 58.4355C37.8398 57.1621 38.3066 56.0684 39.2402 55.1543C40.1699 54.2402 41.2871 53.7832 42.5918 53.7832C43.8809 53.7832 44.9863 54.2441 45.9082 55.166C46.834 56.0879 47.2969 57.1953 47.2969 58.4883C47.2969 59.7891 46.832 60.8926 45.9023 61.7988C44.9688 62.709 43.8418 63.1641 42.5215 63.1641C41.3535 63.1641 40.3047 62.7598 39.375 61.9512C38.3516 61.0566 37.8398 59.8848 37.8398 58.4355ZM39.2168 58.4531C39.2168 59.4531 39.5527 60.2754 40.2246 60.9199C40.8926 61.5645 41.6641 61.8867 42.5391 61.8867C43.4883 61.8867 44.2891 61.5586 44.9414 60.9023C45.5938 60.2383 45.9199 59.4297 45.9199 58.4766C45.9199 57.5117 45.5977 56.7031 44.9531 56.0508C44.3125 55.3945 43.5195 55.0664 42.5742 55.0664C41.6328 55.0664 40.8379 55.3945 40.1895 56.0508C39.541 56.6992 39.2168 57.5 39.2168 58.4531ZM48.5625 58.4355C48.5625 57.1621 49.0293 56.0684 49.9629 55.1543C50.8926 54.2402 52.0098 53.7832 53.3145 53.7832C54.6035 53.7832 55.709 54.2441 56.6309 55.166C57.5566 56.0879 58.0195 57.1953 58.0195 58.4883C58.0195 59.7891 57.5547 60.8926 56.625 61.7988C55.6914 62.709 54.5645 63.1641 53.2441 63.1641C52.0762 63.1641 51.0273 62.7598 50.0977 61.9512C49.0742 61.0566 48.5625 59.8848 48.5625 58.4355ZM49.9395 58.4531C49.9395 59.4531 50.2754 60.2754 50.9473 60.9199C51.6152 61.5645 52.3867 61.8867 53.2617 61.8867C54.2109 61.8867 55.0117 61.5586 55.6641 60.9023C56.3164 60.2383 56.6426 59.4297 56.6426 58.4766C56.6426 57.5117 56.3203 56.7031 55.6758 56.0508C55.0352 55.3945 54.2422 55.0664 53.2969 55.0664C52.3555 55.0664 51.5605 55.3945 50.9121 56.0508C50.2637 56.6992 49.9395 57.5 49.9395 58.4531ZM59.7363 63V53.3379L66.334 60.2402V53.9531H67.6992V63.5508L61.1016 56.666V63H59.7363Z" fill="black"/>
</svg>
