<svg xmlns="http://www.w3.org/2000/svg" width="17.254" height="17.208" viewBox="0 0 17.254 17.208">
  <path id="Контур_93" data-name="Контур 93" d="M18.933,11.766a.844.844,0,0,0-.905-.124,6.79,6.79,0,0,1-2.905.646A7.119,7.119,0,0,1,8.106,5.122a7.789,7.789,0,0,1,.216-1.769.9.9,0,0,0-.288-.845.845.845,0,0,0-.859-.155,9.031,9.031,0,0,0-4.981,9.97,8.806,8.806,0,0,0,8.38,7.181,8.782,8.782,0,0,0,8.67-6.809A.9.9,0,0,0,18.933,11.766Zm-8.189,5.919a7.033,7.033,0,0,1-6.574-4.824A7.32,7.32,0,0,1,6.382,4.883v.239a8.867,8.867,0,0,0,8.741,8.971,8.232,8.232,0,0,0,1.81-.195,6.969,6.969,0,0,1-6.189,3.822Z" transform="translate(-2.017 -2.297)"/>
</svg>
