<svg width="24" height="24" viewBox="0 0 24 24" fill="none" xmlns="http://www.w3.org/2000/svg">
<path d="M11.9883 18.4338C11.7422 18.4338 11.543 18.3284 11.3555 18.1526L2.47266 8.80103C2.32031 8.63696 2.22656 8.44946 2.22656 8.21509C2.22656 7.75806 2.57812 7.40649 3.03516 7.40649C3.25781 7.40649 3.46875 7.48853 3.60938 7.64087L12 16.4534L20.3672 7.64087C20.5195 7.48853 20.7422 7.40649 20.9531 7.40649C21.4102 7.40649 21.7617 7.75806 21.7617 8.21509C21.7617 8.44946 21.668 8.63696 21.5156 8.78931L12.6328 18.1409C12.457 18.3284 12.2344 18.4338 11.9883 18.4338Z" fill="white" fill-opacity="0.48"/>
</svg>
