<svg width="20" height="12" viewBox="0 0 20 12" fill="none" xmlns="http://www.w3.org/2000/svg">
<path d="M9.98828 11.4338C9.74219 11.4338 9.54297 11.3284 9.35547 11.1526L0.472656 1.80103C0.320312 1.63696 0.226562 1.44946 0.226562 1.21509C0.226563 0.758057 0.578125 0.406494 1.03516 0.406494C1.25781 0.406494 1.46875 0.488525 1.60938 0.640869L10 9.45337L18.3672 0.640869C18.5195 0.488525 18.7422 0.406494 18.9531 0.406494C19.4102 0.406494 19.7617 0.758057 19.7617 1.21509C19.7617 1.44946 19.668 1.63696 19.5156 1.78931L10.6328 11.1409C10.457 11.3284 10.2344 11.4338 9.98828 11.4338Z" fill="white"/>
</svg>
