<svg width="25" height="24" viewBox="0 0 25 24" fill="none" xmlns="http://www.w3.org/2000/svg">
<path d="M16.753 18.42C16.333 16.5 15.833 14.73 15.333 13.17C15.833 13.1 16.333 13.06 16.913 13.06H16.933C17.863 13.06 18.883 13.18 19.993 13.43C19.613 15.5 18.413 17.27 16.753 18.42ZM12.333 19.8C10.593 19.8 8.99301 19.23 7.69301 18.26C7.97301 17.81 8.56301 16.94 9.51301 16.04C10.473 15.11 11.833 14.15 13.563 13.58C14.153 15.25 14.693 17.15 15.103 19.29C14.243 19.62 13.333 19.8 12.333 19.8ZM4.53301 12C4.53301 11.96 4.53301 11.93 4.53301 11.89C4.75301 11.9 5.04301 11.9 5.38301 11.9H5.39301C6.95301 11.89 9.69301 11.76 12.473 10.89C12.623 11.22 12.773 11.56 12.923 11.92C11.063 12.54 9.60301 13.53 8.52301 14.5C7.49301 15.46 6.78301 16.39 6.37301 17C5.23301 15.66 4.53301 13.91 4.53301 12ZM8.88301 5C9.43301 5.65 10.513 7.06 11.673 9.25C9.33301 9.96 6.94301 10.12 5.51301 10.12C5.47301 10.12 5.43301 10.12 5.39301 10.12H5.38301C5.14301 10.12 4.93301 10.12 4.76301 10.11C5.33301 7.87 6.83301 6 8.88301 5ZM12.333 4.2C14.173 4.2 15.863 4.84 17.193 5.91C16.173 7.14 14.833 8 13.363 8.65C12.333 6.67 11.333 5.25 10.673 4.38C11.213 4.27 11.763 4.2 12.333 4.2ZM18.463 7.18C19.433 8.42 20.043 9.96 20.123 11.63C18.993 11.39 17.933 11.28 16.933 11.28H16.923C16.123 11.28 15.373 11.35 14.663 11.47C14.493 11.05 14.333 10.65 14.143 10.26C15.723 9.57 17.233 8.58 18.463 7.18ZM12.333 2C11.0198 2 9.71943 2.25866 8.50617 2.7612C7.29292 3.26375 6.19053 4.00035 5.26194 4.92893C3.38658 6.8043 2.33301 9.34784 2.33301 12C2.33301 14.6522 3.38658 17.1957 5.26194 19.0711C6.19053 19.9997 7.29292 20.7362 8.50617 21.2388C9.71943 21.7413 11.0198 22 12.333 22C14.9852 22 17.5287 20.9464 19.4041 19.0711C21.2794 17.1957 22.333 14.6522 22.333 12C22.333 10.6868 22.0744 9.38642 21.5718 8.17317C21.0693 6.95991 20.3327 5.85752 19.4041 4.92893C18.4755 4.00035 17.3731 3.26375 16.1598 2.7612C14.9466 2.25866 13.6462 2 12.333 2Z" fill="white"/>
</svg>
