<svg width="48" height="48" viewBox="0 0 48 48" fill="none" xmlns="http://www.w3.org/2000/svg">
<path d="M19.35 24.4498V16.9498L24 13.8998L28.65 16.9498V24.4498H25.75V19.9498H22.25V24.4498H19.35ZM24 41.4498C28.3 37.7498 31.6417 33.9665 34.0251 30.0998C36.4084 26.2331 37.6 22.9998 37.6 20.3998C37.6 16.2998 36.2917 12.9415 33.675 10.3248C31.0584 7.70814 27.8334 6.3998 24 6.3998C20.1667 6.3998 16.9417 7.70814 14.325 10.3248C11.7084 12.9415 10.4 16.2998 10.4 20.3998C10.4 22.9998 11.6 26.2331 14 30.0998C16.4 33.9665 19.7334 37.7498 24 41.4498ZM24 42.9998C19.0334 38.5331 15.3417 34.3915 12.925 30.5748C10.5084 26.7581 9.30005 23.3665 9.30005 20.3998C9.30005 15.7998 10.7834 12.1331 13.75 9.3998C16.7167 6.66647 20.1334 5.2998 24 5.2998C27.8667 5.2998 31.2834 6.66647 34.25 9.3998C37.2167 12.1331 38.7001 15.7998 38.7001 20.3998C38.7001 23.3665 37.4917 26.7581 35.0751 30.5748C32.6584 34.3915 28.9667 38.5331 24 42.9998Z" fill="white"/>
</svg>
