<svg width="48" height="48" viewBox="0 0 48 48" fill="none" xmlns="http://www.w3.org/2000/svg">
<path d="M16.75 40.3001H31.25V34.2001C31.25 31.9001 30.5833 29.8668 29.25 28.1001C27.9166 26.3334 26.1666 25.4501 24 25.4501C21.8333 25.4501 20.0833 26.3334 18.75 28.1001C17.4166 29.8668 16.75 31.9001 16.75 34.2001V40.3001ZM24 22.5501C26.1666 22.5501 27.9166 21.6668 29.25 19.9001C30.5833 18.1334 31.25 16.1001 31.25 13.8001V7.7001H16.75V13.8001C16.75 16.1001 17.4166 18.1334 18.75 19.9001C20.0833 21.6668 21.8333 22.5501 24 22.5501ZM11.1 41.4001V40.3001H15.65V34.2001C15.65 31.7001 16.3833 29.4834 17.85 27.5501C19.3166 25.6168 21.2666 24.4334 23.7 24.0001C21.2666 23.5668 19.3166 22.3751 17.85 20.4251C16.3833 18.4751 15.65 16.2668 15.65 13.8001V7.7001H11.1V6.6001H36.9V7.7001H32.35V13.8001C32.35 16.2668 31.6166 18.4751 30.15 20.4251C28.6833 22.3751 26.7333 23.5668 24.3 24.0001C26.7333 24.4334 28.6833 25.6168 30.15 27.5501C31.6166 29.4834 32.35 31.7001 32.35 34.2001V40.3001H36.9V41.4001H11.1Z" fill="white"/>
</svg>
