<svg width="48" height="48" viewBox="0 0 48 48" fill="none" xmlns="http://www.w3.org/2000/svg">
<path d="M24 41.4001C21.6 41.4001 19.3416 40.9418 17.225 40.0251C15.1083 39.1084 13.2583 37.8668 11.675 36.3001C10.0916 34.7334 8.84998 32.8918 7.94998 30.7751C7.04998 28.6584 6.59998 26.3834 6.59998 23.9501C6.59998 21.5501 7.04998 19.2918 7.94998 17.1751C8.84998 15.0584 10.0916 13.2168 11.675 11.6501C13.2583 10.0834 15.1083 8.8501 17.225 7.9501C19.3416 7.0501 21.6 6.6001 24 6.6001C26.4 6.6001 28.6583 7.0501 30.775 7.9501C32.8916 8.8501 34.7416 10.0834 36.325 11.6501C37.9083 13.2168 39.15 15.0584 40.05 17.1751C40.95 19.2918 41.4 21.5501 41.4 23.9501C41.4 26.3834 40.95 28.6584 40.05 30.7751C39.15 32.8918 37.9083 34.7334 36.325 36.3001C34.7416 37.8668 32.8916 39.1084 30.775 40.0251C28.6583 40.9418 26.4 41.4001 24 41.4001ZM24 40.4001C25.3666 38.8334 26.4666 37.2501 27.3 35.6501C28.1333 34.0501 28.8166 32.2168 29.35 30.1501H18.65C19.2166 32.3501 19.9166 34.2418 20.75 35.8251C21.5833 37.4084 22.6666 38.9334 24 40.4001ZM22.55 40.3001C21.45 39.1668 20.4416 37.6751 19.525 35.8251C18.6083 33.9751 17.9333 32.0834 17.5 30.1501H8.79998C10.1 33.0834 11.9333 35.4168 14.3 37.1501C16.6666 38.8834 19.4166 39.9334 22.55 40.3001ZM25.5 40.3001C28.4666 40.0001 31.1666 38.9501 33.6 37.1501C36.0333 35.3501 37.9 33.0168 39.2 30.1501H30.5C29.9 32.1501 29.15 34.0584 28.25 35.8751C27.35 37.6918 26.4333 39.1668 25.5 40.3001ZM8.49998 29.0501H17.3C17.1333 28.1168 17.0166 27.2251 16.95 26.3751C16.8833 25.5251 16.85 24.7168 16.85 23.9501C16.85 23.1834 16.8833 22.3834 16.95 21.5501C17.0166 20.7168 17.1333 19.8501 17.3 18.9501H8.49998C8.23331 19.6834 8.03331 20.4834 7.89998 21.3501C7.76664 22.2168 7.69998 23.0834 7.69998 23.9501C7.69998 24.8501 7.76664 25.7334 7.89998 26.6001C8.03331 27.4668 8.23331 28.2834 8.49998 29.0501ZM18.4 29.0501H29.6C29.7666 28.0834 29.8833 27.2001 29.95 26.4001C30.0166 25.6001 30.05 24.7834 30.05 23.9501C30.05 23.1501 30.0166 22.3584 29.95 21.5751C29.8833 20.7918 29.7666 19.9168 29.6 18.9501H18.4C18.2333 19.9168 18.1166 20.7918 18.05 21.5751C17.9833 22.3584 17.95 23.1501 17.95 23.9501C17.95 24.7834 17.9833 25.6001 18.05 26.4001C18.1166 27.2001 18.2333 28.0834 18.4 29.0501ZM30.7 29.0501H39.5C39.7666 28.2834 39.9666 27.4668 40.1 26.6001C40.2333 25.7334 40.3 24.8501 40.3 23.9501C40.3 23.0834 40.2333 22.2168 40.1 21.3501C39.9666 20.4834 39.7666 19.6834 39.5 18.9501H30.75C30.8833 19.9501 30.9833 20.8584 31.05 21.6751C31.1166 22.4918 31.15 23.2501 31.15 23.9501C31.15 24.7168 31.1166 25.5168 31.05 26.3501C30.9833 27.1834 30.8666 28.0834 30.7 29.0501ZM30.5 17.8501H39.2C37.9 14.8834 36.075 12.5251 33.725 10.7751C31.375 9.0251 28.6166 7.98343 25.45 7.6501C26.55 8.9501 27.5416 10.4918 28.425 12.2751C29.3083 14.0584 30 15.9168 30.5 17.8501ZM18.65 17.8501H29.4C28.8333 15.7834 28.1083 13.9001 27.225 12.2001C26.3416 10.5001 25.2666 8.96676 24 7.6001C22.7666 8.86676 21.725 10.3168 20.875 11.9501C20.025 13.5834 19.2833 15.5501 18.65 17.8501ZM8.79998 17.8501H17.5C18 15.9168 18.6833 14.0668 19.55 12.3001C20.4166 10.5334 21.4 8.98343 22.5 7.6501C19.3333 8.01676 16.5833 9.06676 14.25 10.8001C11.9166 12.5334 10.1 14.8834 8.79998 17.8501Z" fill="white"/>
</svg>
