<svg width="32" height="32" viewBox="0 0 32 32" fill="none" xmlns="http://www.w3.org/2000/svg">
<path d="M16 27.6C14.4 27.6 12.8945 27.2944 11.4834 26.6833C10.0722 26.0722 8.83891 25.2444 7.78336 24.2C6.7278 23.1556 5.90002 21.9278 5.30002 20.5167C4.70002 19.1055 4.40002 17.5889 4.40002 15.9667C4.40002 14.3667 4.70002 12.8611 5.30002 11.45C5.90002 10.0389 6.7278 8.8111 7.78336 7.76666C8.83891 6.72222 10.0722 5.89999 11.4834 5.29999C12.8945 4.69999 14.4 4.39999 16 4.39999C17.6 4.39999 19.1056 4.69999 20.5167 5.29999C21.9278 5.89999 23.1611 6.72222 24.2167 7.76666C25.2722 8.8111 26.1 10.0389 26.7 11.45C27.3 12.8611 27.6 14.3667 27.6 15.9667C27.6 17.5889 27.3 19.1055 26.7 20.5167C26.1 21.9278 25.2722 23.1556 24.2167 24.2C23.1611 25.2444 21.9278 26.0722 20.5167 26.6833C19.1056 27.2944 17.6 27.6 16 27.6ZM16 26.9333C16.9111 25.8889 17.6445 24.8333 18.2 23.7667C18.7556 22.7 19.2111 21.4778 19.5667 20.1H12.4334C12.8111 21.5667 13.2778 22.8278 13.8334 23.8833C14.3889 24.9389 15.1111 25.9556 16 26.9333ZM15.0334 26.8667C14.3 26.1111 13.6278 25.1167 13.0167 23.8833C12.4056 22.65 11.9556 21.3889 11.6667 20.1H5.86669C6.73336 22.0555 7.95558 23.6111 9.53336 24.7667C11.1111 25.9222 12.9445 26.6222 15.0334 26.8667ZM17 26.8667C18.9778 26.6667 20.7778 25.9667 22.4 24.7667C24.0222 23.5667 25.2667 22.0111 26.1334 20.1H20.3334C19.9334 21.4333 19.4334 22.7055 18.8334 23.9167C18.2334 25.1278 17.6222 26.1111 17 26.8667ZM5.66669 19.3667H11.5334C11.4222 18.7444 11.3445 18.15 11.3 17.5833C11.2556 17.0167 11.2334 16.4778 11.2334 15.9667C11.2334 15.4556 11.2556 14.9222 11.3 14.3667C11.3445 13.8111 11.4222 13.2333 11.5334 12.6333H5.66669C5.48891 13.1222 5.35558 13.6556 5.26669 14.2333C5.1778 14.8111 5.13336 15.3889 5.13336 15.9667C5.13336 16.5667 5.1778 17.1556 5.26669 17.7333C5.35558 18.3111 5.48891 18.8555 5.66669 19.3667ZM12.2667 19.3667H19.7334C19.8445 18.7222 19.9222 18.1333 19.9667 17.6C20.0111 17.0667 20.0334 16.5222 20.0334 15.9667C20.0334 15.4333 20.0111 14.9056 19.9667 14.3833C19.9222 13.8611 19.8445 13.2778 19.7334 12.6333H12.2667C12.1556 13.2778 12.0778 13.8611 12.0334 14.3833C11.9889 14.9056 11.9667 15.4333 11.9667 15.9667C11.9667 16.5222 11.9889 17.0667 12.0334 17.6C12.0778 18.1333 12.1556 18.7222 12.2667 19.3667ZM20.4667 19.3667H26.3334C26.5111 18.8555 26.6445 18.3111 26.7334 17.7333C26.8222 17.1556 26.8667 16.5667 26.8667 15.9667C26.8667 15.3889 26.8222 14.8111 26.7334 14.2333C26.6445 13.6556 26.5111 13.1222 26.3334 12.6333H20.5C20.5889 13.3 20.6556 13.9055 20.7 14.45C20.7445 14.9944 20.7667 15.5 20.7667 15.9667C20.7667 16.4778 20.7445 17.0111 20.7 17.5667C20.6556 18.1222 20.5778 18.7222 20.4667 19.3667ZM20.3334 11.9H26.1334C25.2667 9.92222 24.05 8.34999 22.4834 7.18333C20.9167 6.01666 19.0778 5.32222 16.9667 5.09999C17.7 5.96666 18.3611 6.99444 18.95 8.18333C19.5389 9.37222 20 10.6111 20.3334 11.9ZM12.4334 11.9H19.6C19.2222 10.5222 18.7389 9.26666 18.15 8.13333C17.5611 6.99999 16.8445 5.97777 16 5.06666C15.1778 5.91111 14.4834 6.87777 13.9167 7.96666C13.35 9.05555 12.8556 10.3667 12.4334 11.9ZM5.86669 11.9H11.6667C12 10.6111 12.4556 9.37777 13.0334 8.19999C13.6111 7.02222 14.2667 5.98888 15 5.09999C12.8889 5.34444 11.0556 6.04444 9.50002 7.19999C7.94447 8.35555 6.73336 9.92222 5.86669 11.9Z" fill="white"/>
</svg>
