<svg width="48" height="48" viewBox="0 0 48 48" fill="none" xmlns="http://www.w3.org/2000/svg">
<path d="M4.34998 38.1001C3.88331 38.1001 3.47498 37.9251 3.12498 37.5751C2.77498 37.2251 2.59998 36.8001 2.59998 36.3001H9.29998C8.53331 36.3001 7.89164 36.0418 7.37498 35.5251C6.85831 35.0084 6.59998 34.3668 6.59998 33.6001V11.3001C6.59998 10.5334 6.85831 9.89176 7.37498 9.3751C7.89164 8.85843 8.53331 8.6001 9.29998 8.6001H38.7C39.4666 8.6001 40.1083 8.85843 40.625 9.3751C41.1416 9.89176 41.4 10.5334 41.4 11.3001V33.6001C41.4 34.3668 41.1416 35.0084 40.625 35.5251C40.1083 36.0418 39.4666 36.3001 38.7 36.3001H45.4C45.4 36.8001 45.225 37.2251 44.875 37.5751C44.525 37.9251 44.1 38.1001 43.6 38.1001H4.34998ZM24 37.6501C24.2666 37.6501 24.4833 37.5668 24.65 37.4001C24.8166 37.2334 24.9 37.0168 24.9 36.7501C24.9 36.5168 24.8166 36.3084 24.65 36.1251C24.4833 35.9418 24.2666 35.8501 24 35.8501C23.7333 35.8501 23.5166 35.9418 23.35 36.1251C23.1833 36.3084 23.1 36.5168 23.1 36.7501C23.1 37.0168 23.1833 37.2334 23.35 37.4001C23.5166 37.5668 23.7333 37.6501 24 37.6501ZM9.29998 35.2001H38.7C39.1 35.2001 39.4666 35.0334 39.8 34.7001C40.1333 34.3668 40.3 34.0001 40.3 33.6001V11.3001C40.3 10.9001 40.1333 10.5334 39.8 10.2001C39.4666 9.86676 39.1 9.7001 38.7 9.7001H9.29998C8.89998 9.7001 8.53331 9.86676 8.19998 10.2001C7.86664 10.5334 7.69998 10.9001 7.69998 11.3001V33.6001C7.69998 34.0001 7.86664 34.3668 8.19998 34.7001C8.53331 35.0334 8.89998 35.2001 9.29998 35.2001Z" fill="white"/>
</svg>
