<svg width="25" height="24" viewBox="0 0 25 24" fill="none" xmlns="http://www.w3.org/2000/svg">
<path d="M19.333 3C19.8634 3 20.3721 3.21071 20.7472 3.58579C21.1223 3.96086 21.333 4.46957 21.333 5V19C21.333 19.5304 21.1223 20.0391 20.7472 20.4142C20.3721 20.7893 19.8634 21 19.333 21H5.33301C4.80257 21 4.29387 20.7893 3.91879 20.4142C3.54372 20.0391 3.33301 19.5304 3.33301 19V5C3.33301 4.46957 3.54372 3.96086 3.91879 3.58579C4.29387 3.21071 4.80257 3 5.33301 3H19.333ZM18.833 18.5V13.2C18.833 12.3354 18.4895 11.5062 17.8782 10.8948C17.2668 10.2835 16.4376 9.94 15.573 9.94C14.723 9.94 13.733 10.46 13.253 11.24V10.13H10.463V18.5H13.253V13.57C13.253 12.8 13.873 12.17 14.643 12.17C15.0143 12.17 15.3704 12.3175 15.633 12.5801C15.8955 12.8426 16.043 13.1987 16.043 13.57V18.5H18.833ZM7.21301 8.56C7.65857 8.56 8.08589 8.383 8.40095 8.06794C8.71601 7.75288 8.89301 7.32556 8.89301 6.88C8.89301 5.95 8.14301 5.19 7.21301 5.19C6.76479 5.19 6.33493 5.36805 6.018 5.68499C5.70106 6.00193 5.52301 6.43178 5.52301 6.88C5.52301 7.81 6.28301 8.56 7.21301 8.56ZM8.60301 18.5V10.13H5.83301V18.5H8.60301Z" fill="white"/>
</svg>
