<svg width="48" height="48" viewBox="0 0 48 48" fill="none" xmlns="http://www.w3.org/2000/svg">
<path d="M27.7 18.85V17.75C28.7666 17.1833 29.925 16.7583 31.175 16.475C32.425 16.1917 33.7 16.05 35 16.05C35.7 16.05 36.3666 16.0917 37 16.175C37.6333 16.2583 38.3 16.3833 39 16.55V17.65C38.3333 17.45 37.6916 17.3167 37.075 17.25C36.4583 17.1833 35.7666 17.15 35 17.15C33.7 17.15 32.425 17.2917 31.175 17.575C29.925 17.8583 28.7666 18.2833 27.7 18.85ZM27.7 29.75V28.55C28.7 27.9833 29.85 27.5583 31.15 27.275C32.45 26.9917 33.7333 26.85 35 26.85C35.7 26.85 36.3666 26.8917 37 26.975C37.6333 27.0583 38.3 27.1833 39 27.35V28.45C38.3333 28.25 37.6916 28.1167 37.075 28.05C36.4583 27.9833 35.7666 27.95 35 27.95C33.7 27.95 32.425 28.1083 31.175 28.425C29.925 28.7417 28.7666 29.1833 27.7 29.75ZM27.7 24.35V23.15C28.7666 22.5833 29.925 22.1583 31.175 21.875C32.425 21.5917 33.7 21.45 35 21.45C35.7 21.45 36.3666 21.4917 37 21.575C37.6333 21.6583 38.3 21.7833 39 21.95V23.05C38.3333 22.85 37.6916 22.7167 37.075 22.65C36.4583 22.5833 35.7666 22.55 35 22.55C33.7 22.55 32.425 22.7083 31.175 23.025C29.925 23.3417 28.7666 23.7833 27.7 24.35ZM12.8 32.4C14.6666 32.4 16.4833 32.625 18.25 33.075C20.0166 33.525 21.7666 34.2333 23.5 35.2V15.1C22 13.9333 20.3083 13.0583 18.425 12.475C16.5416 11.8917 14.6666 11.6 12.8 11.6C11.5666 11.6 10.5416 11.6667 9.72498 11.8C8.90831 11.9333 7.93331 12.1833 6.79998 12.55C6.39998 12.6833 6.11664 12.875 5.94998 13.125C5.78331 13.375 5.69998 13.65 5.69998 13.95V32.05C5.69998 32.4833 5.86664 32.8083 6.19998 33.025C6.53331 33.2417 6.89998 33.2833 7.29998 33.15C7.86664 32.9167 8.61664 32.7333 9.54998 32.6C10.4833 32.4667 11.5666 32.4 12.8 32.4ZM24.6 35.2C26.3 34.2333 28.0166 33.525 29.75 33.075C31.4833 32.625 33.3 32.4 35.2 32.4C36.4333 32.4 37.525 32.4667 38.475 32.6C39.425 32.7333 40.1666 32.8833 40.7 33.05C41.1 33.2167 41.4666 33.1917 41.8 32.975C42.1333 32.7583 42.3 32.4167 42.3 31.95V13.95C42.3 13.65 42.2166 13.3833 42.05 13.15C41.8833 12.9167 41.6 12.7167 41.2 12.55C40.1 12.1833 39.1333 11.9333 38.3 11.8C37.4666 11.6667 36.4333 11.6 35.2 11.6C33.3 11.6 31.425 11.8917 29.575 12.475C27.725 13.0583 26.0666 13.9333 24.6 15.1V35.2ZM24.05 36.8C22.35 35.7333 20.55 34.9167 18.65 34.35C16.75 33.7833 14.8 33.5 12.8 33.5C11.9333 33.5 11.0833 33.55 10.25 33.65C9.41664 33.75 8.56664 33.9167 7.69998 34.15C6.93331 34.45 6.22498 34.3417 5.57498 33.825C4.92498 33.3083 4.59998 32.6167 4.59998 31.75V14.15C4.59998 13.5833 4.74998 13.0583 5.04998 12.575C5.34998 12.0917 5.76664 11.75 6.29998 11.55C7.33331 11.1833 8.39998 10.9167 9.49998 10.75C10.6 10.5833 11.7 10.5 12.8 10.5C14.8333 10.5 16.8 10.8 18.7 11.4C20.6 12 22.3833 12.8833 24.05 14.05C25.6833 12.8833 27.45 12 29.35 11.4C31.25 10.8 33.2 10.5 35.2 10.5C36.3 10.5 37.4 10.5833 38.5 10.75C39.6 10.9167 40.6666 11.1833 41.7 11.55C42.2333 11.75 42.65 12.0917 42.95 12.575C43.25 13.0583 43.4 13.5833 43.4 14.15V31.75C43.4 32.6167 43.0333 33.2917 42.3 33.775C41.5666 34.2583 40.8 34.35 40 34.05C39.2 33.85 38.4 33.7083 37.6 33.625C36.8 33.5417 36 33.5 35.2 33.5C33.2 33.5 31.2583 33.7833 29.375 34.35C27.4916 34.9167 25.7166 35.7333 24.05 36.8Z" fill="white"/>
</svg>
