<svg width="48" height="48" viewBox="0 0 48 48" fill="none" xmlns="http://www.w3.org/2000/svg">
<path d="M23.3 37.1001H24.6V34.7501C26.0666 34.7501 27.4666 34.3001 28.8 33.4001C30.1333 32.5001 30.8 31.1334 30.8 29.3001C30.8 27.8001 30.3416 26.6001 29.425 25.7001C28.5083 24.8001 26.8666 23.9001 24.5 23.0001C22.2333 22.1668 20.8 21.4501 20.2 20.8501C19.6 20.2501 19.3 19.3834 19.3 18.2501C19.3 17.1501 19.75 16.2168 20.65 15.4501C21.55 14.6834 22.7 14.3001 24.1 14.3001C25.1 14.3001 25.9666 14.5168 26.7 14.9501C27.4333 15.3834 28.0666 15.9668 28.6 16.7001L29.65 16.2501C29.0833 15.3501 28.3666 14.6334 27.5 14.1001C26.6333 13.5668 25.7 13.2668 24.7 13.2001V10.9001H23.4V13.2001C21.6333 13.4334 20.3 14.0334 19.4 15.0001C18.5 15.9668 18.05 17.0501 18.05 18.2501C18.05 19.6834 18.5083 20.8168 19.425 21.6501C20.3416 22.4834 21.9166 23.3168 24.15 24.1501C26.35 25.0168 27.8083 25.7918 28.525 26.4751C29.2416 27.1584 29.6 28.1001 29.6 29.3001C29.6 30.8001 29.0416 31.8918 27.925 32.5751C26.8083 33.2584 25.6 33.6001 24.3 33.6001C23.1 33.6001 22 33.2668 21 32.6001C20 31.9334 19.2 31.0001 18.6 29.8001L17.5 30.3001C18.1666 31.5668 18.9833 32.5334 19.95 33.2001C20.9166 33.8668 22.0333 34.3501 23.3 34.6501V37.1001ZM24 41.4001C21.6 41.4001 19.35 40.9418 17.25 40.0251C15.15 39.1084 13.3083 37.8584 11.725 36.2751C10.1416 34.6918 8.89164 32.8501 7.97498 30.7501C7.05831 28.6501 6.59998 26.4001 6.59998 24.0001C6.59998 21.6001 7.05831 19.3418 7.97498 17.2251C8.89164 15.1084 10.1416 13.2668 11.725 11.7001C13.3083 10.1334 15.15 8.89176 17.25 7.9751C19.35 7.05843 21.6 6.6001 24 6.6001C26.4 6.6001 28.6583 7.05843 30.775 7.9751C32.8916 8.89176 34.7333 10.1334 36.3 11.7001C37.8666 13.2668 39.1083 15.1084 40.025 17.2251C40.9416 19.3418 41.4 21.6001 41.4 24.0001C41.4 26.4001 40.9416 28.6501 40.025 30.7501C39.1083 32.8501 37.8666 34.6918 36.3 36.2751C34.7333 37.8584 32.8916 39.1084 30.775 40.0251C28.6583 40.9418 26.4 41.4001 24 41.4001ZM24 40.3001C28.5333 40.3001 32.3833 38.7168 35.55 35.5501C38.7166 32.3834 40.3 28.5334 40.3 24.0001C40.3 19.4668 38.7166 15.6168 35.55 12.4501C32.3833 9.28343 28.5333 7.7001 24 7.7001C19.4666 7.7001 15.6166 9.28343 12.45 12.4501C9.28331 15.6168 7.69998 19.4668 7.69998 24.0001C7.69998 28.5334 9.28331 32.3834 12.45 35.5501C15.6166 38.7168 19.4666 40.3001 24 40.3001Z" fill="white"/>
</svg>
