<svg width="32" height="32" viewBox="0 0 32 32" fill="none" xmlns="http://www.w3.org/2000/svg">
<path d="M0.179688 15.8984C0.179688 15.1758 0.785156 14.5703 1.50781 14.5703H14.6719V1.38672C14.6719 0.683594 15.2773 0.078125 16 0.078125C16.7227 0.078125 17.3281 0.683594 17.3281 1.38672V14.5703H30.5117C31.2148 14.5703 31.8203 15.1758 31.8203 15.8984C31.8203 16.6211 31.2148 17.2266 30.5117 17.2266H17.3281V30.3906C17.3281 31.1133 16.7227 31.7188 16 31.7188C15.2773 31.7188 14.6719 31.1133 14.6719 30.3906V17.2266H1.50781C0.785156 17.2266 0.179688 16.6211 0.179688 15.8984Z" fill="white"/>
</svg>
