<svg width="24" height="24" viewBox="0 0 24 24" fill="none" xmlns="http://www.w3.org/2000/svg">
<path d="M19.2305 12.5391C19.2305 12.832 19.1133 13.0898 18.8906 13.3125L9.60938 22.3945C9.39844 22.6055 9.14062 22.7109 8.83594 22.7109C8.23828 22.7109 7.76953 22.2539 7.76953 21.6445C7.76953 21.3398 7.88672 21.082 8.07422 20.8828L16.6055 12.5391L8.07422 4.19531C7.88672 3.99609 7.76953 3.72656 7.76953 3.43359C7.76953 2.82422 8.23828 2.36719 8.83594 2.36719C9.14062 2.36719 9.39844 2.47266 9.60938 2.67188L18.8906 11.7656C19.1133 11.9766 19.2305 12.2461 19.2305 12.5391Z" fill="#A3A3A3"/>
</svg>
