<svg width="32" height="32" viewBox="0 0 32 32" fill="none" xmlns="http://www.w3.org/2000/svg">
<path d="M21.1667 21.7L21.7 21.1667L16.4 15.8333V9.19999H15.6667V16.1667L21.1667 21.7ZM16 27.6C14.4 27.6 12.9 27.2944 11.5 26.6833C10.1 26.0722 8.87225 25.2389 7.81669 24.1833C6.76114 23.1278 5.9278 21.9 5.31669 20.5C4.70558 19.1 4.40002 17.6 4.40002 16C4.40002 14.4 4.70558 12.9 5.31669 11.5C5.9278 10.1 6.76114 8.87222 7.81669 7.81666C8.87225 6.76111 10.1 5.92777 11.5 5.31666C12.9 4.70555 14.4 4.39999 16 4.39999C17.6 4.39999 19.1 4.70555 20.5 5.31666C21.9 5.92777 23.1278 6.76111 24.1834 7.81666C25.2389 8.87222 26.0722 10.1 26.6834 11.5C27.2945 12.9 27.6 14.4 27.6 16C27.6 17.6 27.2945 19.1 26.6834 20.5C26.0722 21.9 25.2389 23.1278 24.1834 24.1833C23.1278 25.2389 21.9 26.0722 20.5 26.6833C19.1 27.2944 17.6 27.6 16 27.6ZM16 26.8667C19 26.8667 21.5611 25.8056 23.6834 23.6833C25.8056 21.5611 26.8667 19 26.8667 16C26.8667 13 25.8056 10.4389 23.6834 8.31666C21.5611 6.19444 19 5.13333 16 5.13333C13 5.13333 10.4389 6.19444 8.31669 8.31666C6.19447 10.4389 5.13336 13 5.13336 16C5.13336 19 6.19447 21.5611 8.31669 23.6833C10.4389 25.8056 13 26.8667 16 26.8667Z" fill="white"/>
</svg>
