<svg width="25" height="24" viewBox="0 0 25 24" fill="none" xmlns="http://www.w3.org/2000/svg">
<path d="M22.793 6C22.023 6.35 21.193 6.58 20.333 6.69C21.213 6.16 21.893 5.32 22.213 4.31C21.383 4.81 20.463 5.16 19.493 5.36C18.703 4.5 17.593 4 16.333 4C13.983 4 12.063 5.92 12.063 8.29C12.063 8.63 12.103 8.96 12.173 9.27C8.61305 9.09 5.44305 7.38 3.33305 4.79C2.96305 5.42 2.75305 6.16 2.75305 6.94C2.75305 8.43 3.50305 9.75 4.66305 10.5C3.95305 10.5 3.29305 10.3 2.71305 10C2.71305 10 2.71305 10 2.71305 10.03C2.71305 12.11 4.19305 13.85 6.15305 14.24C5.79305 14.34 5.41305 14.39 5.02305 14.39C4.75305 14.39 4.48305 14.36 4.22305 14.31C4.76305 16 6.33305 17.26 8.22305 17.29C6.76305 18.45 4.91305 19.13 2.89305 19.13C2.55305 19.13 2.21305 19.11 1.87305 19.07C3.77305 20.29 6.03305 21 8.45305 21C16.333 21 20.663 14.46 20.663 8.79C20.663 8.6 20.663 8.42 20.653 8.23C21.493 7.63 22.213 6.87 22.793 6Z" fill="white"/>
</svg>
