<svg width="99" height="18" viewBox="0 0 99 18" fill="none" xmlns="http://www.w3.org/2000/svg">
<g clip-path="url(#clip0_1405_151)">
<path d="M0 17.2337L7.48 -3.05176e-05H7.66L15.1387 17.2337H11.3537L6.57875 5.10872L8.94375 3.48372L3.22125 17.2337H0ZM5.11375 11.2412H10.0925L11.2412 13.9912H4.1L5.11375 11.2412Z" fill="white"/>
<path d="M22.5736 0.653778C23.9402 0.653778 25.0965 0.882528 26.0423 1.34003C26.9404 1.7555 27.6936 2.4303 28.2048 3.27753C28.7048 4.11086 28.9548 5.09836 28.9548 6.24003C28.9527 6.93073 28.8504 7.61746 28.6511 8.27878C28.452 8.95541 28.1229 9.58676 27.6823 10.1375C27.2041 10.7199 26.5939 11.1797 25.9023 11.4788C25.159 11.8121 24.2465 11.9788 23.1648 11.9788H20.8161V17.2288H17.5498V0.653778H22.5736ZM23.1361 8.80878C23.5638 8.82363 23.9888 8.73486 24.3748 8.55003C24.6823 8.39706 24.9488 8.17294 25.1523 7.89628C25.3332 7.64701 25.4705 7.36891 25.5586 7.07378C25.6344 6.83069 25.6765 6.57833 25.6836 6.32378C25.677 6.10063 25.6507 5.87851 25.6048 5.66003C25.5438 5.36199 25.4331 5.07634 25.2773 4.81503C25.0953 4.51265 24.8366 4.26381 24.5273 4.09378C24.189 3.89878 23.7344 3.80128 23.1636 3.80128H20.8161V8.80128L23.1361 8.80878Z" fill="white"/>
<path d="M31.875 0.653778H43.1837V3.80753H35.1438V7.34378H42.2688V10.5H35.1438V14.0813H43.5V17.235H31.875V0.653778Z" fill="white"/>
<path d="M45.3037 17.2338L51.2062 7.95253L52.7375 11.2413L49.3625 17.2338H45.3037ZM45.5287 0.653778H49.6962L60.51 17.2338H56.2975L45.5287 0.653778ZM52.9637 6.73628L56.3875 0.653778H60.3525L54.6525 9.55253L52.9637 6.73628Z" fill="white"/>
<path d="M63.2139 0.653778H66.4801V17.2338H63.2139V0.653778Z" fill="white"/>
<path d="M73.2608 0.653778L78.1046 12.5938L76.2121 12.21L80.6046 0.653778H84.4796L76.9108 18L69.3408 0.653778H73.2608Z" fill="white"/>
<path d="M87.3411 0.653778H98.6498V3.80753H90.6073V7.34378H97.7323V10.5H90.6073V14.0813H98.9648V17.235H87.3398L87.3411 0.653778Z" fill="white"/>
</g>
<defs>
<clipPath id="clip0_1405_151">
<rect width="98.9648" height="18.0001" fill="white"/>
</clipPath>
</defs>
</svg>
