<svg width="24" height="24" viewBox="0 0 24 24" fill="none" xmlns="http://www.w3.org/2000/svg">
<g clip-path="url(#clip0_1202_165)">
<path fill-rule="evenodd" clip-rule="evenodd" d="M13 17.5102C14.4286 17.5102 15.8571 16.898 16.8776 16.0816L17.4898 15.4694L20.7551 18.7347L19.9388 19.3469C18.102 20.9796 15.6531 22 13 22C7.28572 22 3 17.7143 3 12C3 6.28571 7.28572 2 13 2C15.6531 2 18.102 3.0204 19.9388 4.65306L20.7551 5.2653L17.4898 8.32653L16.8776 7.71428C15.8571 6.69387 14.4286 6.28571 13 6.28571C9.7347 6.28571 7.4898 8.53061 7.4898 11.7959C7.4898 15.0612 9.7347 17.5102 13 17.5102ZM16.0609 12.0002C16.0609 13.8036 14.599 15.2655 12.7956 15.2655C10.9922 15.2655 9.53027 13.8036 9.53027 12.0002C9.53027 10.1968 10.9922 8.73486 12.7956 8.73486C14.599 8.73486 16.0609 10.1968 16.0609 12.0002Z" fill="#A3A3A3"/>
</g>
<defs>
<clipPath id="clip0_1202_165">
<rect width="24" height="24" fill="white"/>
</clipPath>
</defs>
</svg>
