<svg width="24" height="24" viewBox="0 0 24 24" fill="none" xmlns="http://www.w3.org/2000/svg">
<g clip-path="url(#clip0_1202_163)">
<path d="M19.58 12.2698C19.54 11.6498 19.33 11.1798 18.96 10.8598C18.59 10.5398 18.13 10.3798 17.58 10.3798C17 10.3798 16.5 10.5498 16.19 10.8898C15.86 11.2298 15.65 11.6898 15.57 12.2698M21.92 12.0398C22 12.4498 22 13.0398 22 13.8098H15.5C15.55 14.7098 15.85 15.3298 16.44 15.6898C16.79 15.9198 17.22 16.0298 17.73 16.0298C18.26 16.0298 18.69 15.8898 19 15.6198C19.2 15.4698 19.36 15.2698 19.5 14.9998H21.88C21.82 15.5398 21.53 16.0698 21 16.6198C20.22 17.4998 19.1 17.9198 17.66 17.9198C16.47 17.9198 15.43 17.5498 14.5 16.8198C13.62 16.0898 13.16 14.8998 13.16 13.2498C13.16 11.6998 13.57 10.4998 14.39 9.6998C15.21 8.8698 16.27 8.4598 17.58 8.4598C18.35 8.4598 19.05 8.5998 19.67 8.8798C20.29 9.1598 20.81 9.5898 21.21 10.1998C21.58 10.7298 21.81 11.3398 21.92 12.0398ZM9.58 14.0698C9.58 13.4198 9.31 12.9698 8.79 12.7298C8.5 12.5998 8.08 12.5298 7.54 12.4998H4.87V15.8398H7.5C8.04 15.8398 8.46 15.7698 8.76 15.6198C9.31 15.3498 9.58 14.8298 9.58 14.0698ZM4.87 10.4598H7.5C8.04 10.4598 8.5 10.3598 8.82 10.1498C9.16 9.9498 9.32 9.5798 9.32 9.0598C9.32 8.4998 9.1 8.0998 8.66 7.9098C8.27 7.7798 7.78 7.7198 7.19 7.7198H4.87M11.72 12.4198C12.04 12.9198 12.2 13.5298 12.2 14.2398C12.2 14.9998 12 15.6398 11.65 16.2298C11.41 16.6198 11.12 16.9398 10.77 17.2098C10.37 17.4998 9.9 17.7198 9.36 17.8298C8.82 17.9398 8.24 17.9998 7.61 17.9998H2V5.5498H8C9.53 5.5798 10.6 5.9998 11.23 6.8798C11.61 7.4098 11.8 8.0398 11.8 8.7798C11.8 9.5398 11.61 10.1498 11.23 10.6098C11 10.8698 10.7 11.1098 10.28 11.3198C10.91 11.5498 11.39 11.9198 11.72 12.4198ZM20.06 7.3198H15.05V6.0698H20.06V7.3198Z" fill="#A3A3A3"/>
</g>
<defs>
<clipPath id="clip0_1202_163">
<rect width="24" height="24" fill="white"/>
</clipPath>
</defs>
</svg>
